<svg width="24" height="24" viewBox="0 0 24 24" fill="none" xmlns="http://www.w3.org/2000/svg">
<path d="M22 12C22 6.47715 17.5228 2 12 2C6.47715 2 2 6.47715 2 12C2 17.5228 6.47715 22 12 22" stroke="#88879C" stroke-width="1.5" stroke-linecap="round"/>
<path d="M20 5.69899C19.0653 5.76636 17.8681 6.12824 17.0379 7.20277C15.5385 9.14361 14.039 9.30556 13.0394 8.65861C11.5399 7.6882 12.8 6.11636 11.0401 5.26215C9.89313 4.70542 9.73321 3.19045 10.3716 2" stroke="#88879C" stroke-width="1.5" stroke-linejoin="round"/>
<path d="M3.16504 16.37C4.16169 16.5327 5.38881 16.4872 6.45941 15.8261C8.67134 14.4602 9.45604 15.8095 10.5 17.5C11.544 19.1905 12.2747 17.5053 13.5 18.5C14.297 19.147 14.0948 20.395 13.9587 21.4576" stroke="#88879C" stroke-width="1.5" stroke-linejoin="round"/>
</svg>
