<svg width="24" height="24" viewBox="0 0 24 24" fill="none" xmlns="http://www.w3.org/2000/svg">
<path d="M13.5 2H10.5C8.14298 2 6.96447 2 6.23223 2.73223C5.5 3.46447 5.5 4.64298 5.5 7V17C5.5 19.357 5.5 20.5355 6.23223 21.2678C6.96447 22 8.14298 22 10.5 22H13.5C15.857 22 17.0355 22 17.7678 21.2678C18.5 20.5355 18.5 19.357 18.5 17V7C18.5 4.64298 18.5 3.46447 17.7678 2.73223C17.0355 2 15.857 2 13.5 2Z" stroke="#212528" stroke-width="1.5" stroke-linecap="round" stroke-linejoin="round"/>
<path d="M6.45837 12C6.45837 9.38761 6.45837 8.08143 7.26993 7.26987C8.08149 6.45831 9.38768 6.45831 12 6.45831C14.6124 6.45831 15.9186 6.45831 16.7302 7.26987C17.5417 8.08143 17.5417 9.38761 17.5417 12C17.5417 14.6123 17.5417 15.9185 16.7302 16.7301C15.9186 17.5416 14.6124 17.5416 12 17.5416C9.38768 17.5416 8.08149 17.5416 7.26993 16.7301C6.45837 15.9185 6.45837 14.6123 6.45837 12Z" stroke="#212528" stroke-width="1.5"/>
<path d="M6.45837 12C6.45837 9.38761 6.45837 8.08143 7.26993 7.26987C8.08149 6.45831 9.38768 6.45831 12 6.45831C14.6124 6.45831 15.9186 6.45831 16.7302 7.26987C17.5417 8.08143 17.5417 9.38761 17.5417 12C17.5417 14.6123 17.5417 15.9185 16.7302 16.7301C15.9186 17.5416 14.6124 17.5416 12 17.5416C9.38768 17.5416 8.08149 17.5416 7.26993 16.7301C6.45837 15.9185 6.45837 14.6123 6.45837 12Z" fill="#212528" stroke="#212528" stroke-width="1.5"/>
</svg>
