<svg width="339" height="291" viewBox="0 0 339 291" fill="none" xmlns="http://www.w3.org/2000/svg">
<g clip-path="url(#clip0_84_480)">
<path d="M13.9372 180.029C13.9372 180.029 27.3772 234.881 81.8372 263.784C136.297 292.687 201.579 284.441 254.737 279.121C307.895 273.801 341.929 237.786 338.667 192.566C335.405 147.346 292.635 141.081 260.267 94.4472C227.899 47.8132 226.401 30.9292 173.908 7.7172C121.415 -15.4948 53.5082 15.5992 27.0132 74.9522C0.51823 134.305 13.9372 180.029 13.9372 180.029Z" fill="#00C2CB"/>
<path opacity="0.7" d="M13.9372 180.029C13.9372 180.029 27.3772 234.881 81.8372 263.784C136.297 292.687 201.579 284.441 254.737 279.121C307.895 273.801 341.929 237.786 338.667 192.566C335.405 147.346 292.635 141.081 260.267 94.4472C227.899 47.8132 226.401 30.9292 173.908 7.7172C121.415 -15.4948 53.5082 15.5992 27.0132 74.9522C0.51823 134.305 13.9372 180.029 13.9372 180.029Z" fill="white"/>
<path d="M40.2362 28.8506V273.963" stroke="#263238" stroke-miterlimit="10"/>
<path d="M40.2362 19.4004V24.0904" stroke="#263238" stroke-miterlimit="10"/>
<path d="M129.493 19.4004V273.962" stroke="#263238" stroke-miterlimit="10"/>
<path d="M218.75 19.4004V273.962" stroke="#263238" stroke-miterlimit="10"/>
<path d="M308.007 55.6953V273.962" stroke="#263238" stroke-miterlimit="10"/>
<path d="M308.007 19.4004V49.5774" stroke="#263238" stroke-miterlimit="10"/>
<path d="M260.834 54.1904H56.4412V175.325H260.834V54.1904Z" fill="#263238"/>
<path d="M259.679 57.6348H57.5962V171.882H259.679V57.6348Z" fill="white" stroke="#263238" stroke-linecap="round" stroke-linejoin="round"/>
<path d="M261.982 52.1182H54.1102V58.6142H261.982V52.1182Z" fill="#263238"/>
<path d="M160.93 52.0279C164.158 52.0279 166.775 49.411 166.775 46.1829C166.775 42.9548 164.158 40.3379 160.93 40.3379C157.702 40.3379 155.085 42.9548 155.085 46.1829C155.085 49.411 157.702 52.0279 160.93 52.0279Z" fill="white" stroke="#263238" stroke-linecap="round" stroke-linejoin="round"/>
<path d="M164.01 46.1824C164.011 46.7919 163.832 47.388 163.494 47.8955C163.157 48.4029 162.676 48.7987 162.114 49.0329C161.551 49.2671 160.931 49.3291 160.333 49.2111C159.736 49.093 159.186 48.8002 158.755 48.3698C158.323 47.9393 158.029 47.3905 157.91 46.7929C157.79 46.1952 157.851 45.5756 158.084 45.0124C158.317 44.4492 158.711 43.9677 159.218 43.629C159.725 43.2902 160.321 43.1094 160.93 43.1094C161.746 43.1094 162.528 43.4329 163.105 44.009C163.683 44.5851 164.008 45.3668 164.01 46.1824Z" fill="#00C2CB" stroke="#263238" stroke-miterlimit="10"/>
<path d="M94.2902 131.828H69.3142V106.502H111.79V131.828H99.0432" stroke="#263238" stroke-miterlimit="10"/>
<path d="M136.731 143.951H102.83V164.167H136.731V143.951Z" stroke="#263238" stroke-miterlimit="10"/>
<path d="M174.146 106.502H178.423V131.828H135.947V106.502H170.072" stroke="#263238" stroke-miterlimit="10"/>
<path d="M139.482 69.4785H189.336V94.8115H125.041V69.4785H134.729" stroke="#263238" stroke-miterlimit="10"/>
<path d="M244.671 106.502H202.195V131.828H244.671V106.502Z" stroke="#263238" stroke-miterlimit="10"/>
<path d="M121.534 81.9531C121.534 81.9531 98.9942 85.0821 85.7502 104.178" stroke="#263238" stroke-miterlimit="10"/>
<path d="M107.114 134.558L110.096 143.266" stroke="#263238" stroke-miterlimit="10"/>
<path d="M137.9 133.773L135.17 141.956" stroke="#263238" stroke-miterlimit="10"/>
<path d="M106.82 140.396L110.096 143.266L110.915 139.374" stroke="#263238" stroke-miterlimit="10"/>
<path d="M133.833 139.374L135.058 142.65L138.537 140.599" stroke="#263238" stroke-miterlimit="10"/>
<path d="M86.3592 100.293L85.7502 104.178L90.0412 101.518" stroke="#263238" stroke-miterlimit="10"/>
<path d="M179.669 118.5H200.949" stroke="#263238" stroke-miterlimit="10"/>
<path d="M196.448 115.84L201.159 118.5L196.861 121.16" stroke="#263238" stroke-miterlimit="10"/>
<path d="M112.497 118.5H133.777" stroke="#263238" stroke-miterlimit="10"/>
<path d="M129.276 115.84L133.98 118.5L129.689 121.16" stroke="#263238" stroke-miterlimit="10"/>
<path d="M157.031 96.835V103.31" stroke="#263238" stroke-miterlimit="10"/>
<path d="M159.684 98.8018L157.024 103.513L154.371 99.2148" stroke="#263238" stroke-miterlimit="10"/>
<path d="M200.746 126.15H180.278" stroke="#263238" stroke-miterlimit="10"/>
<path d="M184.604 123.49L180.082 126.15L184.212 128.81" stroke="#263238" stroke-miterlimit="10"/>
<path d="M138.334 77.375H176.806" stroke="#263238" stroke-miterlimit="10"/>
<path d="M138.334 81.0566H176.806" stroke="#263238" stroke-miterlimit="10"/>
<path d="M138.334 84.7383H176.806" stroke="#263238" stroke-miterlimit="10"/>
<path d="M73.2622 115.84H107.849" stroke="#263238" stroke-miterlimit="10"/>
<path d="M73.2622 119.528H107.849" stroke="#263238" stroke-miterlimit="10"/>
<path d="M73.2622 123.211H107.849" stroke="#263238" stroke-miterlimit="10"/>
<path d="M140.385 115.84H174.965" stroke="#263238" stroke-miterlimit="10"/>
<path d="M140.385 119.528H174.965" stroke="#263238" stroke-miterlimit="10"/>
<path d="M140.385 123.211H174.965" stroke="#263238" stroke-miterlimit="10"/>
<path d="M205.044 115.84H239.624" stroke="#263238" stroke-miterlimit="10"/>
<path d="M205.044 119.528H239.624" stroke="#263238" stroke-miterlimit="10"/>
<path d="M205.044 123.211H239.624" stroke="#263238" stroke-miterlimit="10"/>
<path d="M107.233 150.833H133.63" stroke="#263238" stroke-miterlimit="10"/>
<path d="M107.233 154.515H133.63" stroke="#263238" stroke-miterlimit="10"/>
<path d="M107.233 158.204H133.63" stroke="#263238" stroke-miterlimit="10"/>
<path d="M224.287 80.5872C224.212 80.5855 224.14 80.5599 224.08 80.514C224.021 80.4682 223.978 80.4045 223.958 80.3324C223.938 80.2604 223.941 80.1837 223.967 80.1136C223.994 80.0435 224.042 79.9838 224.105 79.9432L224.371 79.7752L224.273 79.8312C224.195 79.8648 224.108 79.8691 224.027 79.8431C223.946 79.8171 223.878 79.7627 223.834 79.69C223.79 79.6173 223.775 79.5311 223.79 79.4477C223.805 79.3642 223.85 79.289 223.916 79.2362L225.316 78.3472L224.091 79.0472C224.013 79.0865 223.922 79.0949 223.838 79.0708C223.754 79.0467 223.681 78.9918 223.636 78.9169C223.59 78.8421 223.574 78.7528 223.591 78.6667C223.608 78.5807 223.656 78.5041 223.727 78.4522L226.233 76.8142L223.86 78.2142C223.782 78.2585 223.689 78.2709 223.602 78.2488C223.514 78.2266 223.439 78.1716 223.391 78.0952C223.345 78.0173 223.33 77.9248 223.35 77.8365C223.369 77.7481 223.421 77.6704 223.496 77.6192L227.402 75.0082L223.594 77.1992C223.517 77.2438 223.427 77.2571 223.34 77.2362C223.254 77.2153 223.18 77.1619 223.132 77.0872C223.107 77.0505 223.089 77.0092 223.08 76.9657C223.071 76.9222 223.071 76.8773 223.08 76.8337C223.088 76.7901 223.105 76.7486 223.13 76.7116C223.154 76.6746 223.186 76.6428 223.223 76.6182L229.082 72.4182L223.23 75.7992C223.152 75.8436 223.059 75.8559 222.972 75.8338C222.884 75.8116 222.809 75.7566 222.761 75.6802C222.713 75.6047 222.696 75.5134 222.715 75.4257C222.733 75.3381 222.785 75.2611 222.859 75.2112L227.059 72.2992L222.929 74.6862C222.853 74.7298 222.763 74.7432 222.677 74.7237C222.592 74.7043 222.517 74.6534 222.467 74.5812C222.419 74.5057 222.402 74.4144 222.421 74.3267C222.439 74.2391 222.491 74.1621 222.565 74.1122L224.945 72.5092L222.698 73.8042C222.619 73.8485 222.527 73.8609 222.44 73.8388C222.352 73.8166 222.277 73.7616 222.229 73.6852C222.182 73.6088 222.166 73.5169 222.186 73.4292C222.205 73.3415 222.259 73.265 222.334 73.2162L223.867 72.1802L222.467 72.9852C222.391 73.0209 222.304 73.0277 222.223 73.0045C222.142 72.9813 222.072 72.9296 222.026 72.8589C221.98 72.7882 221.961 72.7032 221.972 72.6197C221.984 72.5361 222.025 72.4596 222.089 72.4042L226.184 69.3732L222.131 71.7112C222.054 71.7524 221.965 71.7634 221.88 71.7422C221.796 71.7209 221.722 71.6688 221.674 71.5961C221.626 71.5234 221.606 71.4353 221.62 71.3492C221.633 71.263 221.678 71.1849 221.746 71.1302L225.372 68.3302L221.767 70.3812C221.689 70.4245 221.598 70.4371 221.511 70.4163C221.424 70.3956 221.348 70.3431 221.298 70.2692C221.249 70.1945 221.231 70.1038 221.248 70.0162C221.265 69.9287 221.316 69.8512 221.389 69.8002L223.16 68.4912L221.522 69.4432C221.444 69.4865 221.353 69.4991 221.266 69.4783C221.179 69.4576 221.103 69.4051 221.053 69.3312C221.005 69.2568 220.987 69.1672 221.003 69.0802C221.018 68.9932 221.066 68.9153 221.137 68.8622L222.586 67.7632L221.277 68.5192C221.2 68.5638 221.11 68.5771 221.023 68.5562C220.937 68.5353 220.863 68.4819 220.815 68.4072C220.766 68.3345 220.745 68.2459 220.758 68.159C220.771 68.0721 220.817 67.9933 220.885 67.9382L221.585 67.3712L221.025 67.6932C220.956 67.7342 220.875 67.7496 220.795 67.7368C220.716 67.7241 220.644 67.6838 220.591 67.6232C220.542 67.5603 220.515 67.4826 220.515 67.4027C220.515 67.3227 220.542 67.2451 220.591 67.1822L221.697 65.7822L220.689 66.3632C220.632 66.4008 220.565 66.4209 220.496 66.4209C220.428 66.4209 220.361 66.4008 220.304 66.3632C220.25 66.3223 220.209 66.2671 220.186 66.2039C220.162 66.1407 220.157 66.0722 220.171 66.0062L220.276 65.5792C220.217 65.5752 220.159 65.5572 220.108 65.5268C220.057 65.4964 220.014 65.4544 219.982 65.4042C219.938 65.323 219.928 65.2281 219.953 65.1394C219.978 65.0507 220.036 64.975 220.115 64.9282L220.619 64.6342C220.678 64.6013 220.746 64.5862 220.813 64.5909C220.881 64.5956 220.946 64.6198 221 64.6605C221.054 64.7013 221.095 64.7569 221.118 64.8205C221.141 64.8842 221.145 64.9532 221.13 65.0192L221.039 65.3762L222.887 64.3122C222.957 64.2734 223.039 64.2599 223.118 64.274C223.197 64.2881 223.268 64.3289 223.321 64.3896C223.373 64.4503 223.403 64.5272 223.406 64.6074C223.409 64.6876 223.383 64.7663 223.335 64.8302L222.236 66.2302L225.547 64.3192C225.623 64.2772 225.713 64.2646 225.798 64.284C225.883 64.3033 225.958 64.3532 226.009 64.4242C226.058 64.4977 226.077 64.5868 226.062 64.6737C226.048 64.7607 226.001 64.839 225.932 64.8932L225.232 65.4672L226.982 64.4522C227.059 64.411 227.148 64.3999 227.233 64.4212C227.317 64.4425 227.391 64.4946 227.439 64.5673C227.487 64.64 227.507 64.728 227.493 64.8142C227.48 64.9004 227.435 64.9785 227.367 65.0332L225.918 66.1322L228.305 64.7322C228.383 64.6888 228.474 64.6763 228.561 64.697C228.648 64.7178 228.724 64.7703 228.774 64.8442C228.822 64.9185 228.84 65.0082 228.824 65.0952C228.809 65.1822 228.761 65.2601 228.69 65.3132L226.912 66.6222L229.579 65.0822C229.617 65.0569 229.659 65.0393 229.703 65.0304C229.748 65.0214 229.794 65.0213 229.838 65.0301C229.883 65.0389 229.925 65.0564 229.963 65.0815C230.001 65.1066 230.033 65.139 230.058 65.1767C230.084 65.2144 230.101 65.2567 230.11 65.3012C230.119 65.3457 230.119 65.3915 230.111 65.436C230.102 65.4805 230.084 65.5229 230.059 65.5607C230.034 65.5984 230.002 65.6309 229.964 65.6562L226.338 68.4562L231.119 65.6562C231.197 65.6128 231.288 65.6003 231.375 65.621C231.462 65.6418 231.538 65.6943 231.588 65.7682C231.636 65.8425 231.654 65.9322 231.638 66.0192C231.623 66.1062 231.575 66.1841 231.504 66.2372L227.402 69.2682L232.456 66.3562C232.534 66.3112 232.626 66.2977 232.713 66.3185C232.8 66.3394 232.876 66.3929 232.925 66.4682C232.973 66.5448 232.99 66.6372 232.972 66.726C232.954 66.8147 232.902 66.893 232.827 66.9442L231.287 67.9732L233.275 66.8252C233.352 66.7881 233.441 66.7808 233.523 66.8046C233.605 66.8284 233.676 66.8816 233.722 66.9541C233.768 67.0267 233.785 67.1135 233.771 67.1981C233.757 67.2828 233.713 67.3593 233.646 67.4132L231.273 69.0162L234.073 67.3922C234.15 67.3551 234.239 67.3478 234.321 67.3716C234.403 67.3953 234.474 67.4486 234.52 67.5211C234.566 67.5937 234.583 67.6805 234.569 67.7651C234.555 67.8497 234.511 67.9263 234.444 67.9802L230.244 70.8922L235.018 68.1342C235.095 68.0971 235.184 68.0898 235.266 68.1136C235.348 68.1373 235.419 68.1906 235.465 68.2631C235.511 68.3357 235.528 68.4225 235.514 68.5071C235.5 68.5918 235.456 68.6683 235.389 68.7222L229.53 72.9222L236.054 69.1492C236.132 69.1048 236.225 69.0924 236.312 69.1146C236.4 69.1367 236.475 69.1918 236.523 69.2682C236.548 69.3053 236.565 69.347 236.573 69.3907C236.582 69.4345 236.581 69.4796 236.572 69.5232C236.563 69.5669 236.545 69.6083 236.52 69.645C236.495 69.6817 236.462 69.7131 236.425 69.7372L232.512 72.3622L236.761 69.9052C236.839 69.8659 236.93 69.8574 237.014 69.8816C237.098 69.9057 237.171 69.9606 237.216 70.0354C237.262 70.1102 237.278 70.1995 237.261 70.2856C237.244 70.3717 237.196 70.4483 237.125 70.5002L234.619 72.1382L237.3 70.5912C237.378 70.545 237.471 70.5316 237.559 70.5539C237.647 70.5762 237.722 70.6324 237.769 70.7102C237.793 70.7477 237.81 70.7897 237.818 70.8338C237.826 70.8779 237.825 70.9231 237.815 70.9668C237.805 71.0105 237.787 71.0518 237.761 71.0882C237.735 71.1247 237.702 71.1556 237.664 71.1792L236.264 72.0752L237.713 71.2352C237.791 71.189 237.884 71.1756 237.972 71.1979C238.06 71.2202 238.135 71.2764 238.182 71.3542C238.228 71.4321 238.243 71.5245 238.223 71.6129C238.204 71.7012 238.152 71.7789 238.077 71.8302L237.811 71.9982L238.112 71.8232C238.189 71.7861 238.278 71.7788 238.36 71.8026C238.442 71.8264 238.513 71.8796 238.559 71.9521C238.605 72.0247 238.622 72.1115 238.608 72.1961C238.594 72.2808 238.55 72.3573 238.483 72.4112L234.451 75.2812L238.651 72.8522C238.728 72.8054 238.821 72.7909 238.908 72.8119C238.996 72.8328 239.072 72.8876 239.12 72.9642C239.168 73.0408 239.185 73.1332 239.167 73.222C239.149 73.3107 239.097 73.389 239.022 73.4402L238.931 73.4962C239.009 73.4518 239.101 73.4389 239.188 73.4603C239.275 73.4816 239.35 73.5355 239.399 73.6109C239.447 73.6863 239.465 73.7774 239.448 73.8655C239.432 73.9535 239.382 74.0318 239.309 74.0842L238.525 74.6372L239.267 74.2172C239.338 74.1717 239.422 74.1538 239.505 74.1667C239.588 74.1795 239.664 74.2224 239.717 74.287C239.77 74.3517 239.798 74.4338 239.795 74.5177C239.792 74.6015 239.759 74.6814 239.701 74.7422L238.371 76.2752L239.659 75.5332C239.721 75.4963 239.794 75.4805 239.865 75.4881C239.937 75.4957 240.005 75.5262 240.058 75.5752C240.113 75.6224 240.152 75.6854 240.169 75.7556C240.187 75.8258 240.182 75.8997 240.156 75.9672L240.016 76.2962C240.084 76.2886 240.153 76.3012 240.214 76.3323C240.275 76.3634 240.325 76.4117 240.359 76.4712C240.405 76.5511 240.417 76.646 240.394 76.7351C240.37 76.8242 240.312 76.9004 240.233 76.9472L239.491 77.3742C239.428 77.4119 239.355 77.4286 239.283 77.4219C239.21 77.4152 239.141 77.3855 239.087 77.3371C239.032 77.2887 238.994 77.2241 238.979 77.1527C238.963 77.0813 238.971 77.0068 239.001 76.9402L239.12 76.6462L236.915 77.9202C236.843 77.9582 236.761 77.9701 236.682 77.9541C236.602 77.9381 236.531 77.895 236.48 77.8323C236.428 77.7695 236.401 77.691 236.401 77.61C236.401 77.529 236.429 77.4506 236.481 77.3882L237.811 75.8552L232.708 78.7812C232.631 78.8241 232.541 78.8364 232.455 78.8156C232.369 78.7949 232.295 78.7426 232.246 78.6692C232.221 78.6325 232.203 78.5912 232.194 78.5477C232.185 78.5042 232.185 78.4593 232.194 78.4157C232.202 78.3721 232.219 78.3306 232.244 78.2936C232.268 78.2566 232.3 78.2248 232.337 78.2002L233.121 77.6402L230.216 79.3132C230.138 79.3575 230.045 79.3699 229.958 79.3478C229.87 79.3256 229.795 79.2706 229.747 79.1942C229.7 79.1178 229.684 79.0259 229.704 78.9382C229.723 78.8505 229.776 78.774 229.852 78.7252L229.936 78.6622L227.997 79.7822C227.92 79.8268 227.83 79.8401 227.743 79.8192C227.657 79.7983 227.583 79.7449 227.535 79.6702C227.51 79.6335 227.492 79.5922 227.483 79.5487C227.474 79.5052 227.474 79.4603 227.483 79.4167C227.491 79.3731 227.508 79.3316 227.533 79.2946C227.557 79.2576 227.589 79.2258 227.626 79.2012L231.679 76.3522L224.462 80.5172C224.412 80.5578 224.351 80.5823 224.287 80.5872Z" fill="#00C2CB"/>
<path d="M213.5 90.3873C211.918 89.0413 210.644 87.3713 209.765 85.4893C208.885 83.6073 208.421 81.5583 208.404 79.4813C208.404 71.2213 215.565 64.5293 224.399 64.5293C233.233 64.5293 240.401 71.2213 240.401 79.4813C240.401 87.7413 233.24 94.4333 224.399 94.4333C222.084 94.4333 219.794 93.9573 217.672 93.0333" stroke="#263238" stroke-miterlimit="10"/>
<path d="M194.313 76.2549H204.414" stroke="#263238" stroke-miterlimit="10"/>
<path d="M194.313 79.7334H204.414" stroke="#263238" stroke-miterlimit="10"/>
<path d="M194.313 83.2197H204.414" stroke="#263238" stroke-miterlimit="10"/>
<path d="M72.2121 135.649H89.9781" stroke="#263238" stroke-miterlimit="10"/>
<path d="M72.2121 139.136H89.9781" stroke="#263238" stroke-miterlimit="10"/>
<path d="M68.5232 90.3594H86.2892" stroke="#263238" stroke-miterlimit="10"/>
<path d="M72.2121 142.614H89.9781" stroke="#263238" stroke-miterlimit="10"/>
<path d="M72.2121 149.93H89.9781" stroke="#263238" stroke-miterlimit="10"/>
<path d="M72.2121 153.416H89.9781" stroke="#263238" stroke-miterlimit="10"/>
<path d="M72.2121 156.901H89.9781" stroke="#263238" stroke-miterlimit="10"/>
<path d="M220.143 64.9072L224.462 80.5382L240.261 76.9332" stroke="#263238" stroke-miterlimit="10"/>
<path d="M68.7121 68.9121V86.3141H96.6562" stroke="#263238" stroke-miterlimit="10"/>
<path d="M77.4132 71.2842H71.6102V86.3132H77.4132V71.2842Z" fill="#00C2CB" stroke="#263238" stroke-miterlimit="10"/>
<path d="M92.1762 74.708H86.3732V86.307H92.1762V74.708Z" fill="#00C2CB" stroke="#263238" stroke-miterlimit="10"/>
<path d="M84.7982 66.5391H78.9952V86.3141H84.7982V66.5391Z" fill="#00C2CB" stroke="#263238" stroke-miterlimit="10"/>
<path d="M35.0702 181.059C35.0702 181.059 35.0702 178.133 30.9752 174.059C26.8802 169.985 24.2482 167.626 24.2482 167.626C24.2482 167.626 22.1972 174.353 26.0052 178.448C28.8009 181.329 31.8332 183.97 35.0702 186.344V181.059Z" fill="#00C2CB"/>
<path d="M29.1272 199.329C29.1272 199.329 29.1272 196.403 25.0322 192.329C20.9372 188.255 18.3052 185.882 18.3052 185.882C18.3052 185.882 16.2542 192.609 20.0552 196.704C22.8632 199.585 25.9071 202.226 29.1552 204.6L29.1272 199.329Z" fill="#00C2CB"/>
<path d="M34.8112 186.043C34.8112 186.043 35.1262 183.131 39.6272 179.491C44.1282 175.851 46.9982 173.807 46.9982 173.807C46.9982 173.807 48.3282 180.709 44.1142 184.384C41.0254 186.951 37.7288 189.257 34.2582 191.279L34.8112 186.043Z" fill="#00C2CB"/>
<path d="M27.6362 207.617C27.6362 207.617 28.2452 204.761 33.1102 201.611C37.9752 198.461 41.0342 196.711 41.0342 196.711C41.0342 196.711 41.6292 203.711 37.0512 206.924C33.7187 209.153 30.2066 211.101 26.5512 212.748L27.6362 207.617Z" fill="#00C2CB"/>
<path d="M28.9802 231.144C28.9802 231.144 28.9802 228.218 33.0822 224.144C37.1842 220.07 39.8092 217.711 39.8092 217.711C39.8092 217.711 41.8532 224.438 38.0522 228.533C35.246 231.416 32.2019 234.057 28.9522 236.429L28.9802 231.144Z" fill="#00C2CB"/>
<path d="M28.9172 236.883C28.9172 236.883 29.3302 233.992 25.8582 229.351C22.3862 224.71 20.1112 222.029 20.1112 222.029C20.1112 222.029 17.1292 228.399 20.3142 232.991C22.6731 236.239 25.3003 239.283 28.1682 242.091L28.9172 236.883Z" fill="#00C2CB"/>
<path d="M24.8782 253.908C24.8782 253.908 24.8782 250.982 28.9732 246.908C33.0682 242.834 35.7002 240.468 35.7002 240.468C35.7002 240.468 37.7512 247.195 33.9432 251.29C31.1376 254.176 28.0935 256.819 24.8432 259.193L24.8782 253.908Z" fill="#00C2CB"/>
<path d="M27.6082 269.335C27.6082 269.335 26.8732 266.5 29.7922 261.502C32.7112 256.504 34.6922 253.571 34.6922 253.571C34.6922 253.571 38.3742 259.563 35.7352 264.491C33.7552 267.986 31.4888 271.311 28.9592 274.431L27.6082 269.335Z" fill="#00C2CB"/>
<path d="M35.4412 180.281C35.2348 183.333 34.8609 186.37 34.3212 189.381C32.7042 197.781 28.6512 203.143 27.0342 210.696C25.4172 218.249 30.0652 227.986 28.8192 237.688C27.5732 247.39 23.8002 252.794 24.8782 259.269C25.9562 265.744 31.6262 283.279 31.6262 283.279" stroke="#263238" stroke-linecap="round" stroke-linejoin="round"/>
<path d="M34.7762 187.989L39.1862 184.601" stroke="#263238" stroke-linecap="round" stroke-linejoin="round"/>
<path d="M34.9792 184.083L33.1312 180.8" stroke="#263238" stroke-linecap="round" stroke-linejoin="round"/>
<path d="M27.2792 210.382C27.2792 210.382 30.9752 207.582 34.7762 204.845" stroke="#263238" stroke-linecap="round" stroke-linejoin="round"/>
<path d="M29.1272 204.593C29.1272 204.593 26.0472 198.559 22.5612 194.555" stroke="#263238" stroke-linecap="round" stroke-linejoin="round"/>
<path d="M29.1272 235.308C31.2372 231.419 33.8992 227.857 37.0302 224.731" stroke="#263238" stroke-linecap="round" stroke-linejoin="round"/>
<path d="M28.4132 239.411C27.2908 236.773 25.9516 234.233 24.4092 231.816C22.2532 228.638 21.9452 228.225 21.9452 228.225" stroke="#263238" stroke-linecap="round" stroke-linejoin="round"/>
<path d="M24.8782 259.283C25.8131 256.957 26.9247 254.706 28.2032 252.549C29.4827 250.553 30.9249 248.666 32.5152 246.907" stroke="#263238" stroke-linecap="round" stroke-linejoin="round"/>
<path d="M28.9452 274.432C28.7306 272.211 29.1124 269.974 30.0512 267.95C31.5912 264.975 33.3342 261.069 34.0552 259.55" stroke="#263238" stroke-linecap="round" stroke-linejoin="round"/>
<path d="M8.2672 220.139C8.2672 220.139 7.9452 218.305 10.0732 215.295C12.2012 212.285 13.5732 210.528 13.5732 210.528C13.5732 210.528 15.5892 214.525 13.6432 217.528C12.2028 219.639 10.5871 221.625 8.8132 223.464L8.2672 220.139Z" fill="#00C2CB"/>
<path d="M13.9652 230.955C13.9652 230.955 13.6432 229.121 15.7712 226.104C17.8992 223.087 19.2712 221.344 19.2712 221.344C19.2712 221.344 21.2802 225.341 19.3412 228.344C17.8998 230.456 16.2842 232.444 14.5112 234.287L13.9652 230.955Z" fill="#00C2CB"/>
<path d="M8.96721 223.24C8.96721 223.24 8.45621 221.448 5.23621 219.656C2.01623 217.864 0.000229652 216.856 0.000229652 216.856C0.000229652 216.856 -0.08377 221.336 2.96123 223.156C5.16611 224.458 7.47741 225.57 9.87021 226.481L8.96721 223.24Z" fill="#00C2CB"/>
<path d="M15.7992 235.987C15.7992 235.987 15.0992 234.265 11.7112 232.816C8.32323 231.367 6.20923 230.618 6.20923 230.618C6.20923 230.618 6.60123 235.077 9.82123 236.589C12.1589 237.617 14.5774 238.451 17.0522 239.081L15.7992 235.987Z" fill="#00C2CB"/>
<path d="M17.5072 250.891C17.5072 250.891 17.1922 249.057 14.1752 246.929C11.1582 244.801 9.27519 243.625 9.27519 243.625C9.27519 243.625 8.71519 248.07 11.5502 250.226C13.608 251.729 15.788 253.056 18.0672 254.195L17.5072 250.891Z" fill="#00C2CB"/>
<path d="M18.1722 254.482C18.1722 254.482 17.5982 252.711 19.2712 249.428C20.9442 246.145 22.0712 244.213 22.0712 244.213C22.0712 244.213 24.6332 247.881 23.1352 251.108C22.0119 253.402 20.6959 255.596 19.2012 257.667L18.1722 254.482Z" fill="#00C2CB"/>
<path d="M23.3102 269.28C23.3102 269.28 23.5272 267.432 26.4112 265.136C29.2952 262.84 31.1362 261.559 31.1362 261.559C31.1362 261.559 31.9412 265.962 29.2392 268.272C27.2642 269.892 25.1569 271.344 22.9392 272.612L23.3102 269.28Z" fill="#00C2CB"/>
<path d="M22.5542 264.716C22.5542 264.716 22.2672 262.882 19.2222 260.782C16.1772 258.682 14.3222 257.471 14.3222 257.471C14.3222 257.471 13.7692 261.916 16.6042 264.072C18.669 265.575 20.856 266.903 23.1422 268.041L22.5542 264.716Z" fill="#00C2CB"/>
<path d="M22.5122 274.69C22.5122 274.69 22.6732 272.835 20.2932 270.014C17.9132 267.193 16.3732 265.569 16.3732 265.569C16.3732 265.569 14.7142 269.727 16.9052 272.527C18.5344 274.509 20.3281 276.349 22.2672 278.029L22.5122 274.69Z" fill="#00C2CB"/>
<path d="M7.93823 219.713C8.39843 221.609 8.96153 223.478 9.62523 225.313C11.5502 230.388 14.6722 233.328 16.5132 237.913C18.3542 242.498 16.5132 249.113 18.3192 255.035C20.1252 260.957 23.1072 263.96 23.1352 268.139C23.1632 272.318 21.5112 283.882 21.5112 283.882" stroke="#263238" stroke-linecap="round" stroke-linejoin="round"/>
<path d="M9.19124 224.452L6.05524 222.807" stroke="#263238" stroke-linecap="round" stroke-linejoin="round"/>
<path d="M8.63818 222.03L9.44318 219.769" stroke="#263238" stroke-linecap="round" stroke-linejoin="round"/>
<path d="M16.3172 237.682C16.3172 237.682 13.6992 236.345 11.0182 235.015" stroke="#263238" stroke-linecap="round" stroke-linejoin="round"/>
<path d="M14.5672 234.259C15.3361 231.828 16.3517 229.483 17.5983 227.259" stroke="#263238" stroke-linecap="round" stroke-linejoin="round"/>
<path d="M17.8712 253.515C16.1242 251.307 14.0684 249.362 11.7672 247.74" stroke="#263238" stroke-linecap="round" stroke-linejoin="round"/>
<path d="M18.7672 256.015C19.1827 254.238 19.7446 252.498 20.4472 250.814C21.4552 248.588 21.6022 248.294 21.6022 248.294" stroke="#263238" stroke-linecap="round" stroke-linejoin="round"/>
<path d="M22.9672 271.282C23.9876 270.019 25.1165 268.848 26.3412 267.782C27.1346 267.2 27.8791 266.554 28.5672 265.85" stroke="#263238" stroke-linecap="round" stroke-linejoin="round"/>
<path d="M23.1352 268.089C22.301 266.732 21.365 265.44 20.3352 264.225C19.3151 263.112 18.2054 262.084 17.0172 261.152" stroke="#263238" stroke-linecap="round" stroke-linejoin="round"/>
<path d="M22.2672 278.029C22.1588 276.612 21.6756 275.25 20.8672 274.081C19.5792 272.387 18.0672 270.126 17.4442 269.237" stroke="#263238" stroke-linecap="round" stroke-linejoin="round"/>
<path d="M324.064 96.4534C327.238 82.7944 318.738 69.1502 305.08 65.9769C291.422 62.8036 277.777 71.3032 274.604 84.9614C271.431 98.6194 279.93 112.264 293.588 115.437C307.247 118.61 320.891 110.111 324.064 96.4534Z" fill="#263238" stroke="#263238" stroke-miterlimit="10"/>
<path d="M307.722 110.568C318.69 105.924 323.816 93.267 319.172 82.299C314.528 71.3304 301.871 66.2039 290.903 70.8484C279.934 75.4929 274.808 88.15 279.452 99.118C284.097 110.086 296.753 115.213 307.722 110.568Z" fill="white" stroke="#263238" stroke-miterlimit="10"/>
<path d="M305.977 76.8633L299.313 90.6883H308.833" stroke="#263238" stroke-miterlimit="10"/>
<path d="M301.735 90.6816C301.736 91.1606 301.596 91.6296 301.33 92.0286C301.065 92.4286 300.687 92.7396 300.245 92.9246C299.802 93.1086 299.315 93.1576 298.845 93.0646C298.375 92.9726 297.942 92.7426 297.603 92.4036C297.263 92.0656 297.032 91.6336 296.938 91.1636C296.844 90.6936 296.892 90.2066 297.075 89.7636C297.258 89.3206 297.568 88.9416 297.967 88.6756C298.365 88.4086 298.834 88.2666 299.313 88.2666C299.631 88.2656 299.946 88.3276 300.239 88.4486C300.533 88.5696 300.8 88.7476 301.025 88.9716C301.25 89.1956 301.429 89.4626 301.551 89.7556C301.672 90.0496 301.735 90.3636 301.735 90.6816Z" fill="#00C2CB" stroke="#263238" stroke-miterlimit="10"/>
<path d="M162.029 156.286L158.767 151.54C158.767 151.54 159.411 143.91 158.683 142.72C157.955 141.53 146.167 140.151 145.467 141.033C144.767 141.915 147.245 142.713 147.245 142.713C147.245 142.713 145.565 143.455 145.74 144.302C145.999 145.548 148.148 145.702 148.148 145.702C148.148 145.702 146.44 146.843 146.65 147.585C146.818 148.173 148.526 148.635 148.526 148.635C148.526 148.635 146.797 149.419 148.211 150.42C149.625 151.421 150.822 152.457 150.822 152.457C150.822 152.457 149.842 154.557 152.495 156.384C155.148 158.211 159.733 161.536 159.733 161.536L162.029 156.286Z" fill="white" stroke="#263238" stroke-linecap="round" stroke-linejoin="round"/>
<path d="M145.908 137.855L143.297 137.638V138.443L145.397 139.626C145.516 139.022 145.687 138.43 145.908 137.855Z" fill="#263238" stroke="#263238" stroke-linecap="round" stroke-linejoin="round"/>
<path d="M156.17 143.14C156.054 143.144 155.938 143.128 155.827 143.091L145.467 139.822C145.332 139.786 145.205 139.723 145.095 139.636C144.985 139.55 144.894 139.442 144.827 139.32C144.759 139.197 144.718 139.062 144.704 138.923C144.69 138.783 144.705 138.643 144.747 138.509C144.789 138.376 144.858 138.252 144.949 138.146C145.04 138.04 145.152 137.954 145.277 137.892C145.403 137.83 145.539 137.794 145.679 137.787C145.819 137.779 145.959 137.8 146.09 137.848L156.45 141.117C156.683 141.191 156.882 141.345 157.013 141.552C157.143 141.758 157.197 142.004 157.163 142.247C157.13 142.489 157.011 142.711 156.83 142.875C156.648 143.038 156.414 143.132 156.17 143.14Z" fill="white" stroke="#263238" stroke-linecap="round" stroke-linejoin="round"/>
<path d="M161.567 145.177C161.41 145.178 161.254 145.154 161.105 145.107L155.757 143.42C155.555 143.392 155.362 143.32 155.191 143.21C155.02 143.099 154.875 142.953 154.767 142.78C154.658 142.608 154.588 142.414 154.562 142.212C154.536 142.01 154.554 141.805 154.616 141.611C154.677 141.417 154.78 141.238 154.918 141.088C155.055 140.938 155.224 140.82 155.412 140.741C155.6 140.663 155.803 140.626 156.006 140.635C156.21 140.643 156.409 140.695 156.59 140.788L161.938 142.475C162.284 142.589 162.572 142.834 162.74 143.156C162.909 143.479 162.945 143.855 162.841 144.204C162.754 144.477 162.585 144.717 162.357 144.891C162.129 145.065 161.853 145.165 161.567 145.177Z" fill="#263238" stroke="#263238" stroke-linecap="round" stroke-linejoin="round"/>
<path d="M157.255 146.737C156.773 145.339 156.212 143.969 155.575 142.635C154.84 141.277 153.426 140.108 152.866 138.743C152.306 137.378 150.808 139.492 151.361 140.514C151.914 141.536 153.167 143.055 153.188 143.748C153.209 144.441 153.391 144.952 152.593 147.248C151.795 149.544 151.354 152.148 153.139 153.982" fill="white"/>
<path d="M157.255 146.737C156.773 145.339 156.212 143.969 155.575 142.635C154.84 141.277 153.426 140.108 152.866 138.743C152.306 137.378 150.808 139.492 151.361 140.514C151.914 141.536 153.167 143.055 153.188 143.748C153.209 144.441 153.391 144.952 152.593 147.248C151.795 149.544 151.354 152.148 153.139 153.982" stroke="#263238" stroke-linecap="round" stroke-linejoin="round"/>
<path d="M147.273 142.713L153.188 143.749" stroke="#263238" stroke-linecap="round" stroke-linejoin="round"/>
<path d="M148.176 145.709C148.876 145.513 152.593 147.221 152.593 147.221" stroke="#263238" stroke-linecap="round" stroke-linejoin="round"/>
<path d="M148.554 148.642L151.627 149.671" stroke="#263238" stroke-linecap="round" stroke-linejoin="round"/>
<path d="M203.448 147.164C203.448 147.164 201.684 146.121 200.907 148.914C200.13 151.707 197.848 156.614 196.84 157.678C195.832 158.742 185.92 168.556 185.92 168.556C185.92 168.556 181.664 165.217 180.663 166.456C180.242 167.07 179.657 167.555 178.976 167.856L161.98 154.521L155.68 164.048C155.68 164.048 178.78 185.16 180.712 185.797C182.644 186.434 184.009 186.217 184.695 185.853C185.381 185.489 198.065 175.941 198.065 175.941C198.065 175.941 205.8 150.979 206.465 150.097C207.13 149.215 203.448 147.164 203.448 147.164Z" fill="#00C2CB" stroke="#263238" stroke-linecap="round" stroke-linejoin="round"/>
<path d="M180.621 168.612C180.621 168.612 184.065 172.588 184.065 177.621L180.621 168.612Z" fill="#00C2CB"/>
<path d="M180.621 168.612C180.621 168.612 184.065 172.588 184.065 177.621" stroke="#263238" stroke-linecap="round" stroke-linejoin="round"/>
<path d="M186.186 170.201C186.186 170.201 187.243 172.854 185.654 178.678L186.186 170.201Z" fill="#00C2CB"/>
<path d="M186.186 170.201C186.186 170.201 187.243 172.854 185.654 178.678" stroke="#263238" stroke-linecap="round" stroke-linejoin="round"/>
<path d="M211.022 116.358C211.022 116.358 203.518 111.458 204.407 106.803C205.296 102.148 222.124 98.4026 231.798 101.546C241.472 104.689 243.439 119.165 242.165 128.097C240.891 137.029 240.121 157.413 240.121 157.413L207.298 158.379C207.298 158.379 210.357 134.509 210.994 126.963C211.631 119.417 211.022 116.358 211.022 116.358Z" fill="#263238" stroke="#263238" stroke-linecap="round" stroke-linejoin="round"/>
<path d="M194.222 247.783C194.922 254.916 196.252 286.346 197.022 291.001H231.147C231.077 285.639 230.986 249.421 231.756 246.46C232.729 242.757 234.094 230.409 232.589 223.325C231.084 216.241 229.257 212.825 229.257 212.825L193.837 212.79L193.942 215.695C193.942 215.695 193.277 237.682 194.222 247.783Z" fill="#263238" stroke="#263238" stroke-linecap="round" stroke-linejoin="round"/>
<path d="M201.796 226.391C203.196 227.35 204.596 228.036 204.596 229.422C205.296 241.868 208.054 276.826 209.027 289.419" stroke="#4C4C4C" stroke-linecap="round" stroke-linejoin="round"/>
<path d="M211.967 146.682L229.285 147.326C229.285 147.326 215.383 168.725 215.502 180.485C215.621 192.245 217.952 216.619 217.952 216.619C217.952 216.619 210.336 222.646 202.461 221.519C201.607 221.393 201.152 214.337 201.152 214.337C201.152 214.337 200.648 221.19 200.067 221.085C195.657 220.294 193.942 215.737 193.942 215.737L194.859 192.182C194.859 192.182 194.859 176.733 196.581 172.295C198.303 167.857 209.937 148.145 209.937 148.145L211.967 146.682Z" fill="white" stroke="#263238" stroke-linecap="round" stroke-linejoin="round"/>
<path d="M211.267 160.317C211.267 160.317 205.912 171.447 203.952 177.971C201.992 184.495 201.152 214.308 201.152 214.308" stroke="#263238" stroke-linecap="round" stroke-linejoin="round"/>
<path d="M227.199 147.157C227.199 147.157 215.054 165.273 212.709 171.797C210.364 178.321 208.796 203.297 209.104 213.881C209.412 224.465 212.758 236.141 212.758 236.141C222.605 237.713 232.681 237.021 242.221 234.118C242.221 234.118 237.979 215.337 235.921 209.17C234.636 205.128 233.667 200.993 233.023 196.801C233.023 196.801 246.967 152.337 246.967 151.651C246.967 150.965 246.694 150.251 245.301 149.852C243.908 149.453 227.199 147.157 227.199 147.157Z" fill="#00C2CB" stroke="#263238" stroke-linecap="round" stroke-linejoin="round"/>
<path d="M216.069 216.458L234.094 215.016L234.332 217.9L226.646 218.859" fill="#00C2CB"/>
<path d="M216.069 216.458L234.094 215.016L234.332 217.9L226.646 218.859" stroke="#263238" stroke-linecap="round" stroke-linejoin="round"/>
<path d="M211.806 148.992C211.806 148.992 197.337 174.563 197.015 179.183C196.693 183.803 194.551 205.083 193.361 211.81C192.171 218.537 187.026 231.599 187.026 231.599C187.026 231.599 185.703 225.873 186.088 223.325C186.473 220.777 192.045 206.315 192.64 203.067C193.235 199.819 194.04 188.262 193.9 183.194C193.76 178.126 193.41 174.444 194.46 170.727C195.51 167.01 203.448 147.165 203.448 147.165L214.963 146.598L211.806 148.992Z" fill="#00C2CB" stroke="#263238" stroke-linecap="round" stroke-linejoin="round"/>
<path d="M208.67 146.878L206.262 157.903L212.45 153.101L208.67 146.878Z" fill="white" stroke="#263238" stroke-linecap="round" stroke-linejoin="round"/>
<path d="M216.041 141.529L208.67 146.877L211.449 154.15L211.295 160.317L219.653 147.92L216.041 141.529Z" fill="white" stroke="#263238" stroke-linecap="round" stroke-linejoin="round"/>
<path d="M215.614 138.631C215.614 138.631 214.214 148.942 213.773 151.686C213.332 154.43 211.267 160.317 211.267 160.317C211.267 160.317 224.406 147.612 225.057 146.562C225.708 145.512 227.976 135.362 227.976 135.362C227.976 135.362 219.548 138.519 215.614 138.631Z" fill="white" stroke="#263238" stroke-linecap="round" stroke-linejoin="round"/>
<path d="M215.215 141.522C217.007 142.642 218.4 142.642 220.472 142.32C222.544 141.998 225.372 140.052 227.276 138.519C227.696 136.734 227.976 135.362 227.976 135.362C227.976 135.362 219.52 138.519 215.586 138.631C215.614 138.631 215.467 139.835 215.215 141.522Z" fill="#263238" stroke="#263238" stroke-linecap="round" stroke-linejoin="round"/>
<path d="M219.821 107.377L210.126 115.014C210.126 115.014 209.146 122.399 208.782 127.544C208.589 129.661 208.904 131.793 209.702 133.763C210.499 135.733 211.756 137.484 213.367 138.87C216.167 141.355 217.721 141.481 220.444 141.054C223.167 140.627 227.185 137.435 228.683 136.021C230.181 134.607 232.967 130.421 232.967 130.421C232.967 130.421 235.2 130.869 235.858 129.826C236.186 129.336 236.457 128.81 236.663 128.258C236.663 128.258 227.444 123.057 223.657 116.498C219.87 109.939 219.821 107.377 219.821 107.377Z" fill="white" stroke="#263238" stroke-linecap="round" stroke-linejoin="round"/>
<path d="M216.804 120.978C216.663 122.058 216.346 123.108 215.866 124.086C215.215 125.129 212.667 125.717 214.067 126.886C215.131 127.621 216.4 128.003 217.693 127.978" stroke="#263238" stroke-linecap="round" stroke-linejoin="round"/>
<path d="M213.99 129.958C213.99 129.958 219.184 132.198 222.523 129.188" stroke="#263238" stroke-linecap="round" stroke-linejoin="round"/>
<path d="M215.726 130.763C215.726 130.763 216.496 133.647 218.19 133.08C219.884 132.513 221.354 130.28 221.354 130.28C219.491 130.569 217.611 130.73 215.726 130.763Z" stroke="#263238" stroke-linecap="round" stroke-linejoin="round"/>
<path d="M223.342 122.322C223.342 123.078 223.041 123.722 222.642 123.722C222.243 123.722 221.858 123.134 221.837 122.378C221.816 121.622 222.138 120.978 222.537 120.978C222.936 120.978 223.321 121.573 223.342 122.322Z" fill="#263238"/>
<path d="M215.187 121.369C215.187 122.125 214.886 122.769 214.487 122.769C214.088 122.769 213.703 122.181 213.682 121.425C213.661 120.669 213.983 120.025 214.382 120.025C214.781 120.025 215.166 120.613 215.187 121.369Z" fill="#263238"/>
<path d="M212.443 118.198C212.698 117.93 213.006 117.718 213.348 117.575C213.689 117.432 214.056 117.361 214.426 117.366C214.796 117.371 215.161 117.453 215.498 117.606C215.835 117.759 216.136 117.979 216.384 118.254" stroke="#263238" stroke-linecap="round" stroke-linejoin="round"/>
<path d="M220.325 118.682C220.325 118.682 224.217 117.205 225.855 120.572" stroke="#263238" stroke-linecap="round" stroke-linejoin="round"/>
<path d="M218.169 149.853L211.295 160.318L221.396 154.886L218.169 149.853Z" fill="white" stroke="#263238" stroke-linecap="round" stroke-linejoin="round"/>
<path d="M229.705 140.78L218.169 149.852L221.529 159.33L232.61 146.513L229.705 140.78Z" fill="white" stroke="#263238" stroke-linecap="round" stroke-linejoin="round"/>
<path d="M215.684 194.547C214.126 194.113 212.639 193.458 211.267 192.601C208.684 191.061 205.933 191.6 203.63 191.67C201.327 191.74 199.724 192.251 199.983 193.161C200.242 194.071 202.545 194.008 203.238 193.987C203.931 193.966 205.114 195.086 205.114 195.086L199.353 196.486C199.353 196.486 197.547 197.697 198.968 199.034C200.389 200.371 200.648 200.07 200.648 200.07C200.648 200.07 202.825 203.465 205.135 203.626C207.445 203.787 216.832 201.435 216.832 201.435L215.684 194.547Z" fill="white" stroke="#263238" stroke-linecap="round" stroke-linejoin="round"/>
<path d="M232.008 168.087C232.281 169.487 233.772 190.088 233.772 190.088L214.767 194.568L215.782 205.383C215.782 205.383 249.795 201.379 250.425 199.286C251.055 197.193 248.836 161.045 249.025 158.966C249.214 156.887 251.986 149.866 243.684 149.866" fill="#00C2CB"/>
<path d="M232.008 168.087C232.281 169.487 233.772 190.088 233.772 190.088L214.767 194.568L215.782 205.383C215.782 205.383 249.795 201.379 250.425 199.286C251.055 197.193 248.836 161.045 249.025 158.966C249.214 156.887 251.986 149.866 243.684 149.866" stroke="#263238" stroke-linecap="round" stroke-linejoin="round"/>
<path d="M235.186 164.643C235.186 164.643 240.744 157.489 246.841 157.755L235.186 164.643Z" fill="#00C2CB"/>
<path d="M235.186 164.643C235.186 164.643 240.744 157.489 246.841 157.755" stroke="#263238" stroke-linecap="round" stroke-linejoin="round"/>
<path d="M235.186 167.29C235.186 167.29 239.953 164.644 244.72 164.644L235.186 167.29Z" fill="#00C2CB"/>
<path d="M235.186 167.29C235.186 167.29 239.953 164.644 244.72 164.644" stroke="#263238" stroke-linecap="round" stroke-linejoin="round"/>
<path d="M22.7292 291.001V250.499C22.7292 250.18 22.6024 249.873 22.3766 249.648C22.1508 249.422 21.8446 249.295 21.5252 249.295H16.5622C16.2423 249.295 15.9353 249.422 15.7084 249.647C15.4815 249.873 15.3531 250.179 15.3512 250.499V291.001H22.7292Z" fill="#4C4C4C" stroke="#263238" stroke-linecap="round" stroke-linejoin="round"/>
<path d="M16.5482 291.001V250.499C16.5463 250.179 16.4179 249.873 16.191 249.647C15.9641 249.422 15.6572 249.295 15.3372 249.295H10.3672C10.0479 249.295 9.74161 249.422 9.51581 249.648C9.29001 249.873 9.16321 250.18 9.16321 250.499V291.001H16.5482Z" fill="#263238" stroke="#263238" stroke-linecap="round" stroke-linejoin="round"/>
<path d="M19.3412 291H107.94C107.321 289.435 106.273 288.076 104.916 287.08C100.898 284.546 62.6292 278.624 62.6292 278.624L22.8762 277.987L20.9722 278.624C20.9722 278.624 18.8722 281.585 19.0752 283.062C19.1802 283.811 19.2292 287.437 19.3412 291Z" fill="#263238" stroke="#263238" stroke-linecap="round" stroke-linejoin="round"/>
<path d="M55.4402 201.87C55.4402 201.87 46.1372 207.155 42.9662 210.116C39.7952 213.077 34.5102 222.807 34.0832 228.722C33.6562 234.637 29.0082 257.282 29.0082 257.282C29.0082 257.282 19.4672 275.874 20.9722 278.625C22.4772 281.376 61.5722 278.625 62.6292 278.625C63.6862 278.625 61.5722 266.998 61.5722 266.998C61.5722 266.998 76.3702 244.157 76.9722 238.025C77.5742 231.893 73.1642 215.191 72.3172 211.383C71.4702 207.575 57.3442 201.023 55.4402 201.87Z" fill="white" stroke="#263238" stroke-linecap="round" stroke-linejoin="round"/>
<path d="M48.1672 234.182C48.1672 234.182 55.5662 241.182 58.6672 243.527" stroke="#263238" stroke-linecap="round" stroke-linejoin="round"/>
<path d="M44.6672 239.621C44.6672 239.621 58.2962 244.29 61.7962 244.682" stroke="#263238" stroke-linecap="round" stroke-linejoin="round"/>
<path d="M84.4062 178.182C84.4062 178.182 85.4632 186.008 85.2532 188.332C85.0432 190.656 82.9292 198.692 82.2922 200.386C81.6552 202.08 81.0252 203.977 78.7012 203.767C77.3477 203.661 76.0405 203.226 74.8932 202.5L72.5692 210.319L56.4692 201.016L58.5692 196.816C58.5692 196.816 56.2452 193.015 55.6082 186.666C54.9712 180.317 58.5692 173.135 63.2242 170.391C67.8792 167.647 75.9082 168.697 78.2322 170.601C80.5562 172.505 84.4062 178.182 84.4062 178.182Z" fill="white" stroke="#263238" stroke-linecap="round" stroke-linejoin="round"/>
<path d="M55.6502 197.852C56.4972 198.069 74.6832 206.315 74.8932 208.429C75.1032 210.543 75.9502 217.095 75.9502 217.095C72.219 213.888 68.1816 211.056 63.8962 208.639C60.5022 206.848 57.2515 204.798 54.1732 202.507L55.6502 197.852Z" fill="white" stroke="#263238" stroke-linecap="round" stroke-linejoin="round"/>
<path d="M71.7222 160.849C71.7222 160.849 77.2172 158.525 81.6552 159.582C86.0932 160.639 87.7872 165.714 87.7872 169.942C87.7872 174.17 85.4632 179.245 84.6162 179.455C83.7692 179.665 81.6552 169.522 77.6162 166.561C75.3768 164.963 73.39 163.037 71.7222 160.849Z" fill="#00C2CB" stroke="#263238" stroke-linecap="round" stroke-linejoin="round"/>
<path d="M64.9672 162.123C64.9672 162.123 73.6402 157.468 81.2492 164.02C88.8582 170.572 86.3242 177.131 84.6302 179.455C82.9362 181.779 82.9432 186.224 81.6692 187.071C80.3952 187.918 80.1922 183.69 78.7152 182.871C77.2382 182.052 77.4272 185.181 75.7402 189.381C74.0532 193.581 66.4372 199.741 62.4402 199.321C58.4432 198.901 53.5572 194.421 50.8062 185.153C48.0552 175.885 49.9662 165.91 55.0062 162.753C56.4839 161.83 58.1681 161.289 59.907 161.179C61.646 161.069 63.3849 161.393 64.9672 162.123Z" fill="#00C2CB" stroke="#263238" stroke-linecap="round" stroke-linejoin="round"/>
<path d="M81.7672 166.106C81.7672 166.106 83.4472 170.964 79.1492 176.375C74.8512 181.786 69.0692 184.775 64.7782 182.164C60.4873 179.553 60.2912 176.564 60.2912 176.564" stroke="#263238" stroke-linecap="round" stroke-linejoin="round"/>
<path d="M53.4032 177.481C53.4032 177.481 52.4652 192.062 61.2432 193.581C70.0212 195.1 74.8722 185.881 74.8722 185.881" stroke="#263238" stroke-linecap="round" stroke-linejoin="round"/>
<path d="M56.1822 177.769C61.0302 177.769 64.9602 173.792 64.9602 168.886C64.9602 163.98 61.0302 160.003 56.1822 160.003C51.3343 160.003 47.4042 163.98 47.4042 168.886C47.4042 173.792 51.3343 177.769 56.1822 177.769Z" fill="#00C2CB" stroke="#263238" stroke-linecap="round" stroke-linejoin="round"/>
<path d="M54.3342 167.604C54.3342 167.604 55.4542 161.815 58.6252 161.066" stroke="#263238" stroke-linecap="round" stroke-linejoin="round"/>
<path d="M53.9632 168.381C53.9632 168.381 60.3052 166.141 63.2942 168.57" stroke="#263238" stroke-linecap="round" stroke-linejoin="round"/>
<path d="M53.5852 169.467C53.5852 169.467 50.7852 171.336 51.7232 175.634" stroke="#263238" stroke-linecap="round" stroke-linejoin="round"/>
<path d="M79.9682 187.702C79.9682 187.702 79.3312 181.36 77.4272 181.57C75.5232 181.78 76.3702 191.3 77.4272 192.77C77.5203 192.959 77.66 193.122 77.8332 193.243C78.0063 193.363 78.2073 193.438 78.4172 193.459C78.6271 193.481 78.839 193.449 79.0332 193.367C79.2273 193.284 79.3973 193.153 79.5272 192.987" fill="white"/>
<path d="M79.9682 187.702C79.9682 187.702 79.3312 181.36 77.4272 181.57C75.5232 181.78 76.3702 191.3 77.4272 192.77C77.5203 192.959 77.66 193.122 77.8332 193.243C78.0063 193.363 78.2073 193.438 78.4172 193.459C78.6271 193.481 78.839 193.449 79.0332 193.367C79.2273 193.284 79.3973 193.153 79.5272 192.987" stroke="#263238" stroke-linecap="round" stroke-linejoin="round"/>
<path d="M258.678 282.411H62.3282L68.9502 265.744H214.501L258.678 282.411Z" fill="#B5B5B5" stroke="#263238" stroke-linecap="round" stroke-linejoin="round"/>
<path d="M255.983 285.744H64.5052V291.001H255.983V285.744Z" fill="#263238" stroke="#263238" stroke-linecap="round" stroke-linejoin="round"/>
<path d="M258.678 282.412H62.3282V288.6H258.678V282.412Z" fill="#4C4C4C" stroke="#263238" stroke-linecap="round" stroke-linejoin="round"/>
<path d="M136.297 267.88L141.988 276.861H95.8932L100.38 267.88H136.297Z" fill="white"/>
<path d="M127.617 270.574L133.308 279.548H87.2062L91.7002 270.574H127.617Z" fill="white"/>
<path d="M71.5122 221.112L80.3672 262.342L114.835 267.207C114.835 267.207 125.195 263.007 126.035 263.007C126.875 263.007 128.359 265.541 128.996 266.388C129.633 267.235 130.683 268.488 131.096 269.139C131.509 269.79 131.726 272.94 131.096 273.787C130.466 274.634 129.192 276.958 127.918 276.748C126.644 276.538 127.918 273.157 127.918 273.157C127.918 273.157 120.519 276.111 118.195 276.111C115.871 276.111 111.195 274.011 111.195 274.011C111.195 274.011 71.9672 278.414 69.6082 277.581C68.6463 277.284 67.7556 276.793 66.9911 276.138C66.2266 275.483 65.6045 274.678 65.1632 273.773C64.3232 272.086 50.7852 226.831 50.7852 226.831" fill="white"/>
<path d="M71.5122 221.112L80.3672 262.342L114.835 267.207C114.835 267.207 125.195 263.007 126.035 263.007C126.875 263.007 128.359 265.541 128.996 266.388C129.633 267.235 130.683 268.488 131.096 269.139C131.509 269.79 131.726 272.94 131.096 273.787C130.466 274.634 129.192 276.958 127.918 276.748C126.644 276.538 127.918 273.157 127.918 273.157C127.918 273.157 120.519 276.111 118.195 276.111C115.871 276.111 111.195 274.011 111.195 274.011C111.195 274.011 71.9672 278.414 69.6082 277.581C68.6463 277.284 67.7556 276.793 66.9911 276.138C66.2266 275.483 65.6045 274.678 65.1632 273.773C64.3232 272.086 50.7852 226.831 50.7852 226.831" stroke="#263238" stroke-linecap="round" stroke-linejoin="round"/>
<path d="M129.024 266.382C128.387 265.535 126.924 263.001 126.063 263.001C125.202 263.001 114.863 267.201 114.863 267.201L95.2212 264.401C96.5012 267.975 96.8272 271.821 96.1662 275.559C104.363 274.719 111.265 273.935 111.265 273.935C111.265 273.935 115.92 276.035 118.265 276.035C120.61 276.035 127.967 273.13 127.967 273.13C127.967 273.13 126.7 276.511 127.967 276.721C129.234 276.931 130.508 274.621 131.145 273.76C131.782 272.899 131.565 269.742 131.145 269.112C130.725 268.482 129.654 267.208 129.024 266.382Z" fill="white" stroke="#263238" stroke-linecap="round" stroke-linejoin="round"/>
<path d="M3.89923 291.001H338.667" stroke="#263238" stroke-linecap="round" stroke-linejoin="round"/>
<path d="M187.789 277.14H225.001V275.943L169.603 267.655L170.947 268.852L187.789 277.14Z" fill="white" stroke="#263238" stroke-linecap="round" stroke-linejoin="round"/>
<path d="M187.789 275.943H225.001L205.345 267.851L170.947 267.655L187.789 275.943Z" fill="white" stroke="#263238" stroke-linecap="round" stroke-linejoin="round"/>
<path d="M193.851 269.497H197.337L195.559 268.755L192.143 268.783L193.851 269.497Z" fill="white" stroke="#263238" stroke-width="0.75" stroke-linecap="round" stroke-linejoin="round"/>
<path d="M200.928 272.458L202.713 273.207H206.199L204.414 272.458H200.928Z" fill="white" stroke="#263238" stroke-width="0.75" stroke-linecap="round" stroke-linejoin="round"/>
<path d="M207.389 271.338H203.532L204.554 271.765H208.425L207.389 271.338Z" fill="white" stroke="#263238" stroke-width="0.75" stroke-linecap="round" stroke-linejoin="round"/>
<path d="M199.262 271.765H202.755L201.733 271.338H198.247L199.262 271.765Z" fill="white" stroke="#263238" stroke-width="0.75" stroke-linecap="round" stroke-linejoin="round"/>
<path d="M201.873 270.644H205.702L204.61 270.196H200.802L201.873 270.644Z" fill="white" stroke="#263238" stroke-width="0.75" stroke-linecap="round" stroke-linejoin="round"/>
<path d="M188.559 269.497H192.052L190.379 268.797L186.956 268.832L188.559 269.497Z" fill="white" stroke="#263238" stroke-width="0.75" stroke-linecap="round" stroke-linejoin="round"/>
<path d="M195.51 270.196L196.581 270.644H200.074L199.003 270.196H195.51Z" fill="white" stroke="#263238" stroke-width="0.75" stroke-linecap="round" stroke-linejoin="round"/>
<path d="M212.611 275.138H216.622L213.626 273.906H209.664L212.611 275.138Z" fill="white" stroke="#263238" stroke-width="0.75" stroke-linecap="round" stroke-linejoin="round"/>
<path d="M204.372 273.906L207.319 275.138H210.812L207.865 273.906H204.372Z" fill="white" stroke="#263238" stroke-width="0.75" stroke-linecap="round" stroke-linejoin="round"/>
<path d="M199.08 273.906L202.027 275.138H205.52L202.573 273.906H199.08Z" fill="white" stroke="#263238" stroke-width="0.75" stroke-linecap="round" stroke-linejoin="round"/>
<path d="M197.281 273.906H190.463L192.899 275.138H200.228L197.281 273.906Z" fill="white" stroke="#263238" stroke-width="0.75" stroke-linecap="round" stroke-linejoin="round"/>
<path d="M199.143 269.497H202.916L200.991 268.706L197.323 268.741L199.143 269.497Z" fill="white" stroke="#263238" stroke-width="0.75" stroke-linecap="round" stroke-linejoin="round"/>
<path d="M206.22 272.458L208.005 273.207H211.939L210.119 272.458H206.22Z" fill="white" stroke="#263238" stroke-width="0.75" stroke-linecap="round" stroke-linejoin="round"/>
<path d="M200.914 273.207L199.122 272.458H195.636L197.421 273.207H200.914Z" fill="white" stroke="#263238" stroke-width="0.75" stroke-linecap="round" stroke-linejoin="round"/>
<path d="M186.76 269.497L185.192 268.846L180.551 268.881L181.762 269.497H186.76Z" fill="white" stroke="#263238" stroke-width="0.75" stroke-linecap="round" stroke-linejoin="round"/>
<path d="M196.441 271.338H192.955L193.97 271.765H197.463L196.441 271.338Z" fill="white" stroke="#263238" stroke-width="0.75" stroke-linecap="round" stroke-linejoin="round"/>
<path d="M190.218 270.196L191.289 270.644H194.782L193.711 270.196H190.218Z" fill="white" stroke="#263238" stroke-width="0.75" stroke-linecap="round" stroke-linejoin="round"/>
<path d="M192.171 271.765L191.156 271.338H185.395L186.242 271.765H192.171Z" fill="white" stroke="#263238" stroke-width="0.75" stroke-linecap="round" stroke-linejoin="round"/>
<path d="M184.023 270.644H189.49L188.419 270.196H183.141L184.023 270.644Z" fill="white" stroke="#263238" stroke-width="0.75" stroke-linecap="round" stroke-linejoin="round"/>
<path d="M193.837 272.458H187.614L189.091 273.207H195.622L193.837 272.458Z" fill="white" stroke="#263238" stroke-width="0.75" stroke-linecap="round" stroke-linejoin="round"/>
<path d="M187.789 275.943H186.445L160.706 238.829L161.98 238.444H178.829L187.789 275.943Z" fill="white" stroke="#263238" stroke-linecap="round" stroke-linejoin="round"/>
<path d="M186.445 275.943L169.603 267.655L160.643 238.444H177.485L186.445 275.943Z" fill="white" stroke="#263238" stroke-linecap="round" stroke-linejoin="round"/>
<path d="M333.711 291.001V246.005C333.711 245.684 333.583 245.376 333.356 245.149C333.129 244.922 332.821 244.794 332.5 244.794H316.106C315.785 244.794 315.477 244.922 315.25 245.149C315.023 245.376 314.895 245.684 314.895 246.005V291.001H333.711Z" fill="#263238" stroke="#263238" stroke-linecap="round" stroke-linejoin="round"/>
<path d="M327.782 291.001V246.005C327.783 245.846 327.752 245.688 327.692 245.54C327.631 245.393 327.542 245.259 327.429 245.147C327.317 245.034 327.183 244.945 327.035 244.884C326.888 244.824 326.73 244.793 326.571 244.794H310.184C310.025 244.793 309.867 244.824 309.719 244.884C309.572 244.945 309.438 245.034 309.326 245.147C309.213 245.259 309.124 245.393 309.063 245.54C309.003 245.688 308.972 245.846 308.973 246.005V291.001H327.782Z" fill="#4C4C4C" stroke="#263238" stroke-linecap="round" stroke-linejoin="round"/>
<path d="M262.101 219.264C262.101 219.264 254.877 224.08 253.967 227.041C253.057 230.002 247.667 246.858 247.114 248.153C246.561 249.448 242.116 256.301 242.116 256.301L218.414 257.407C218.414 257.407 207.676 255.006 206.745 255.006C205.814 255.006 196.56 261.117 195.818 262.783C195.076 264.449 193.417 266.857 194.152 267.41C194.887 267.963 196.007 267.039 196.007 267.039C196.007 267.039 196.378 269.629 201.005 268.705C205.632 267.781 210.266 264.449 210.266 264.449C210.266 264.449 216.006 267.249 218.225 266.668L218.414 266.612V269.076C218.414 269.076 249.711 270.742 251.006 270.371C252.301 270 259.154 261.67 259.154 261.67L267.113 218.704C267.113 218.704 266.728 214.63 262.101 219.264Z" fill="#00C2CB" stroke="#263238" stroke-linecap="round" stroke-linejoin="round"/>
<path d="M218.911 258.052L218.463 257.408H218.4C218.4 257.408 207.662 255.007 206.731 255.007C205.8 255.007 196.546 261.118 195.804 262.784C195.062 264.45 193.403 266.858 194.138 267.411C194.873 267.964 195.993 267.04 195.993 267.04C195.993 267.04 196.364 269.63 200.991 268.706C205.618 267.782 210.252 264.45 210.252 264.45C210.252 264.45 215.992 267.25 218.211 266.669L218.4 266.613V269.077L218.911 258.052Z" fill="#4C4C4C" stroke="#263238" stroke-linecap="round" stroke-linejoin="round"/>
<path d="M262.983 291.001H263.718C263.151 289.657 262.654 288.425 262.451 287.753C261.863 285.779 254.751 260.075 253.953 256.323C253.155 252.571 253.554 247.223 255.535 239.712C257.516 232.201 262.101 219.265 262.101 219.265L255.535 228.449C255.535 228.449 249.998 249.799 249.998 252.564C249.998 255.329 252.763 269.364 255.535 276.287C257.138 280.298 260.47 286.493 262.983 291.001Z" fill="#00C2CB" stroke="#263238" stroke-linecap="round" stroke-linejoin="round"/>
<path d="M265.062 214.077C265.062 214.077 258.216 224.815 256.361 232.228C254.506 239.641 253.029 246.116 253.029 252.78C253.029 259.444 260.435 278.337 261.548 280.745C262.661 283.153 274.694 283.888 278.397 272.408C282.1 260.928 283.766 227.783 281.547 220.188C279.328 212.593 269.696 209.079 265.062 214.077Z" fill="white" stroke="#263238" stroke-linecap="round" stroke-linejoin="round"/>
<path d="M263.137 212.524C262.682 213.224 256.529 216.626 256.529 216.626L256.298 223.003L258.125 219.587L260.967 228.05L264.026 212.293L263.137 212.524Z" fill="#808080" stroke="#263238" stroke-linecap="round" stroke-linejoin="round"/>
<path d="M263.823 291.001H314.223C312.564 286.563 306.152 269.371 305.956 268.601C305.725 267.684 300.489 227.126 295.015 219.601C289.541 212.076 276.815 209.346 274.057 210.942C274.057 210.942 264.957 229.401 261.52 238.06C258.083 246.719 255.822 263.806 255.822 266.312C255.822 268.818 260.61 284.512 260.61 284.512L263.823 291.001Z" fill="#00C2CB" stroke="#263238" stroke-linecap="round" stroke-linejoin="round"/>
<path d="M300.125 277.441L278.334 283.93L279.727 286.709L291.781 283.006" stroke="#263238" stroke-linecap="round" stroke-linejoin="round"/>
<path d="M252.364 180.443C252.364 180.443 250.614 185.847 250.572 186.96C250.555 187.789 250.581 188.619 250.649 189.445C250.671 189.888 250.564 190.328 250.341 190.712C249.977 191.3 245.882 195.241 246.365 196.032C246.848 196.823 249.676 199.966 249.676 199.966C249.676 199.966 251.657 209.409 254.31 210.501C256.963 211.593 260.708 210.921 260.708 210.921L262.059 214.61L278.607 209.185L278.355 203.746C278.355 203.746 280.014 194.058 278.11 187.1C276.206 180.142 259.651 172.582 252.364 180.443Z" fill="white" stroke="#263238" stroke-linecap="round" stroke-linejoin="round"/>
<path d="M252.896 191.545C252.7 192.35 252.287 192.945 251.979 192.868C251.671 192.791 251.573 192.077 251.769 191.272C251.965 190.467 252.371 189.872 252.686 189.949C253.001 190.026 253.085 190.74 252.896 191.545Z" fill="#263238"/>
<path d="M251.72 187.876C252.054 187.784 252.403 187.758 252.747 187.801C253.091 187.844 253.423 187.955 253.724 188.127C254.026 188.298 254.29 188.528 254.502 188.802C254.714 189.076 254.87 189.389 254.961 189.724" fill="white"/>
<path d="M251.72 187.876C252.054 187.784 252.403 187.758 252.747 187.801C253.091 187.844 253.423 187.955 253.724 188.127C254.026 188.298 254.29 188.528 254.502 188.802C254.714 189.076 254.87 189.389 254.961 189.724" stroke="#263238" stroke-linecap="round" stroke-linejoin="round"/>
<path d="M250.103 201.281C250.103 201.281 251.951 203.136 255.192 201.981L250.103 201.281Z" fill="white"/>
<path d="M250.103 201.281C250.103 201.281 251.951 203.136 255.192 201.981" stroke="#263238" stroke-linecap="round" stroke-linejoin="round"/>
<path d="M262.507 167.199C261.981 165.908 261.142 164.768 260.065 163.882C258.989 162.996 257.708 162.392 256.34 162.124C251.622 161.214 248.248 167.794 249.431 170.321C250.614 172.848 251.146 173.422 248.878 173.548C246.61 173.674 242.263 179.575 246.078 183.194C249.893 186.813 254.52 181.64 254.751 183.488C254.982 185.336 254.359 186.988 256.578 187.065C258.797 187.142 262.444 186.911 261.87 188.346C261.296 189.781 261.17 193.106 263.27 193.617C265.37 194.128 266.686 191.517 268.17 191.888C269.654 192.259 271.67 196.984 270.347 199.588C269.024 202.192 268.149 202.199 267.995 202.836C267.841 203.473 271.95 207.82 276.171 207.036C280.392 206.252 285.88 204.894 286.524 200.344C287.168 195.794 285.824 194.8 287.574 193.204C289.324 191.608 290.997 191.104 290.5 188.528C290.003 185.952 288.4 185.112 288.918 182.991C289.436 180.87 287.329 171.182 278.257 166.982C269.185 162.782 262.507 167.199 262.507 167.199Z" fill="#263238" stroke="#263238" stroke-linecap="round" stroke-linejoin="round"/>
<path d="M280.35 204.067L259.49 216.17L260.988 228.049L283.248 210.353L280.35 204.067Z" fill="white" stroke="#263238" stroke-linecap="round" stroke-linejoin="round"/>
<path d="M225.771 260.376C225.771 260.376 221.571 258.815 218.911 258.052C214.347 256.743 210.07 254.797 208.474 255.252C206.878 255.707 199.108 261.055 199.108 261.055C199.108 261.055 196.371 267.663 196.602 268.58C196.833 269.497 198.499 268.02 198.499 268.02C198.499 268.02 197.512 269.259 198.422 270.176C199.332 271.093 200.249 269.259 200.249 269.259C200.249 269.259 200.018 271.541 201.383 271.31C201.734 271.296 202.071 271.167 202.341 270.943C202.612 270.72 202.801 270.413 202.881 270.071C202.881 270.071 202.979 271.31 204.12 271.31C205.261 271.31 207.767 266.529 207.767 266.529L212.093 266.753C212.093 266.753 215.516 268.58 217.567 268.804C219.618 269.028 222.124 267.663 222.124 267.663L224.854 268.363L227.136 261.755L225.771 260.376Z" fill="white" stroke="#263238" stroke-linecap="round" stroke-linejoin="round"/>
<path d="M198.499 268.019C198.499 268.019 200.83 262.419 201.201 262.055C201.572 261.691 206.234 259.073 206.234 259.073" stroke="#263238" stroke-linecap="round" stroke-linejoin="round"/>
<path d="M200.249 269.259C200.249 269.259 203.049 263.547 203.35 263.267C203.651 262.987 207.165 261.223 207.165 261.223" stroke="#263238" stroke-linecap="round" stroke-linejoin="round"/>
<path d="M202.867 270.071C202.867 270.071 205.569 264.856 206.038 264.576C206.507 264.296 207.711 263.645 207.711 263.645" stroke="#263238" stroke-linecap="round" stroke-linejoin="round"/>
<path d="M286.167 219.132C286.167 219.132 271.81 228.47 272.041 232.117C272.272 235.764 273.406 235.764 273.406 235.764L266.112 263.106C266.112 263.106 263.837 261.286 263.606 263.568L263.382 265.843L225.323 259.466L221.452 269.035C221.452 269.035 237.174 275.188 248.115 279.059C259.056 282.93 270.445 287.263 271.579 285.212C272.713 283.161 295.267 249.435 296.667 246.929C298.067 244.423 298.067 239.866 298.067 239.866" fill="#00C2CB"/>
<path d="M286.167 219.132C286.167 219.132 271.81 228.47 272.041 232.117C272.272 235.764 273.406 235.764 273.406 235.764L266.112 263.106C266.112 263.106 263.837 261.286 263.606 263.568L263.382 265.843L225.323 259.466L221.452 269.035C221.452 269.035 237.174 275.188 248.115 279.059C259.056 282.93 270.445 287.263 271.579 285.212C272.713 283.161 295.267 249.435 296.667 246.929C298.067 244.423 298.067 239.866 298.067 239.866" stroke="#263238" stroke-linecap="round" stroke-linejoin="round"/>
<path d="M273.392 235.763C273.392 235.763 277.718 226.88 288.204 226.194" stroke="#263238" stroke-linecap="round" stroke-linejoin="round"/>
</g>
<defs>
<clipPath id="clip0_84_480">
<rect width="339" height="291" fill="white"/>
</clipPath>
</defs>
</svg>
