<svg width="24" height="24" viewBox="0 0 24 24" fill="none" xmlns="http://www.w3.org/2000/svg">
<path d="M17 17L21 21" stroke="#212528" stroke-width="1.5" stroke-linecap="round" stroke-linejoin="round"/>
<path d="M19 11C19 6.58172 15.4183 3 11 3C6.58172 3 3 6.58172 3 11C3 15.4183 6.58172 19 11 19C15.4183 19 19 15.4183 19 11Z" stroke="#212528" stroke-width="1.5" stroke-linecap="round" stroke-linejoin="round"/>
<path d="M11 4.75C12.931 4.75 14.6122 5.08288 15.7646 6.23535C16.9171 7.38783 17.25 9.06901 17.25 11C17.25 12.931 16.9171 14.6122 15.7646 15.7646C14.6122 16.9171 12.931 17.25 11 17.25C9.06901 17.25 7.38783 16.9171 6.23535 15.7646C5.08288 14.6122 4.75 12.931 4.75 11C4.75 9.069 5.08288 7.38783 6.23535 6.23535C7.38783 5.08288 9.069 4.75 11 4.75Z" stroke="#212528" stroke-width="2.5" stroke-linecap="round" stroke-linejoin="round"/>
</svg>
