<svg width="24" height="24" viewBox="0 0 24 24" fill="none" xmlns="http://www.w3.org/2000/svg">
<path d="M15.5 18C15.5 19.933 13.933 21.5 12 21.5C10.067 21.5 8.5 19.933 8.5 18" stroke="#88879C" stroke-width="1.5" stroke-linecap="round" stroke-linejoin="round"/>
<path d="M13 2.5C8.5 1.5 5 5.63401 5 9.5V12.2558C5 13.0514 4.68393 13.8145 4.12132 14.3771L3.51809 14.9803C3.18636 15.3121 3 15.762 3 16.2311C3 17.208 3.79195 18 4.76887 18H19.2311C20.208 18 21 17.208 21 16.2311C21 15.762 20.8136 15.3121 20.4819 14.9803L19.8787 14.3771C19.3161 13.8145 19 13.0514 19 12.2558V9.5" stroke="#88879C" stroke-width="1.5" stroke-linecap="round" stroke-linejoin="round"/>
<path fill-rule="evenodd" clip-rule="evenodd" d="M17.5 7C18.163 7 18.7989 6.73661 19.2677 6.26777C19.7366 5.79892 20 5.16304 20 4.5C20 3.83696 19.7366 3.20108 19.2677 2.73223C18.7989 2.26339 18.163 2 17.5 2C16.837 2 16.2011 2.26339 15.7323 2.73223C15.2634 3.20108 15 3.83696 15 4.5C15 5.16304 15.2634 5.79892 15.7323 6.26777C16.2011 6.73661 16.837 7 17.5 7Z" fill="#A43434"/>
</svg>
