<svg width="24" height="24" viewBox="0 0 24 24" fill="none" xmlns="http://www.w3.org/2000/svg">
<path d="M16 14C16 14.8284 16.6716 15.5 17.5 15.5C18.3284 15.5 19 14.8284 19 14C19 13.1716 18.3284 12.5 17.5 12.5C16.6716 12.5 16 13.1716 16 14Z" stroke="#88879C" stroke-width="1.5"/>
<path d="M18 7.01732C19.5534 7.06413 20.48 7.23738 21.1213 7.87868C22 8.75736 22 10.1716 22 13V14C22 16.8284 22 18.2426 21.1213 19.1213C20.2426 20 18.8284 20 16 20H3C2.44772 20 2 19.5523 2 19V11C2 7.22876 2 6.34315 3.17157 5.17157C4.34315 4 6.22876 4 10 4H14.9827C15.9308 4 16.4049 4 16.7779 4.15749C17.2579 4.36014 17.6399 4.7421 17.8425 5.22208C18 5.5951 18 6.06917 18 7.01732ZM18 7.01732C17.425 7 16.7641 7 16 7H10" stroke="#88879C" stroke-width="1.5" stroke-linecap="round"/>
</svg>
