<svg width="318" height="318" viewBox="0 0 318 318" fill="none" xmlns="http://www.w3.org/2000/svg">
<g opacity="0.2" filter="url(#filter0_f_32_890)">
<circle cx="159" cy="159" r="78.125" fill="#00C2CB"/>
</g>
<path d="M88.4963 96.1251L88.4977 96.0748C88.6009 95.4487 88.7468 94.8237 88.9248 94.1997C88.9475 94.1177 88.9975 94.0397 89.0719 93.9701C89.1464 93.9005 89.2439 93.8406 89.3588 93.7939C89.4737 93.7472 89.6039 93.7146 89.7418 93.698C89.8796 93.6813 90.0226 93.681 90.1625 93.6969C90.3024 93.7129 90.4364 93.7448 90.5569 93.7909C90.6775 93.837 90.7822 93.8964 90.865 93.9656C90.9479 94.0348 91.0073 94.1126 91.0399 94.1944C91.0725 94.2762 91.0776 94.3605 91.0549 94.4425C90.8882 95.0459 90.7535 95.6523 90.6508 96.2616C90.6347 96.428 90.5069 96.5818 90.2955 96.689C90.0841 96.7963 89.8063 96.8483 89.5233 96.8336C89.2404 96.8189 88.9753 96.7387 88.7866 96.6107C88.5979 96.4826 88.5009 96.3172 88.5169 96.1509L88.4963 96.1251ZM88.7239 102.422C88.7157 102.339 88.7353 102.257 88.7814 102.18C88.8276 102.102 88.8995 102.031 88.993 101.971C89.0864 101.911 89.1997 101.863 89.3263 101.829C89.4528 101.795 89.5902 101.777 89.7306 101.775C89.871 101.772 90.0116 101.786 90.1444 101.816C90.2773 101.846 90.3997 101.89 90.5047 101.947C90.6098 102.004 90.6954 102.073 90.7566 102.148C90.8179 102.224 90.8537 102.306 90.8619 102.388C91.0051 102.99 91.1907 103.606 91.4193 104.21C91.4487 104.291 91.4507 104.375 91.4252 104.455C91.3998 104.536 91.3474 104.613 91.2711 104.681C91.1947 104.749 91.0959 104.807 90.9802 104.851C90.8646 104.896 90.7345 104.927 90.5972 104.941C90.3215 104.971 90.0335 104.935 89.7959 104.841C89.5583 104.748 89.3905 104.603 89.3292 104.44C89.0908 103.804 88.895 103.169 88.742 102.536L88.7239 102.422ZM91.7314 88.2905C91.7336 88.2176 91.7574 88.1459 91.8015 88.0786C92.193 87.4606 92.6148 86.9064 93.0586 86.3277C93.1161 86.2533 93.1983 86.1868 93.3005 86.132C93.4026 86.0771 93.5228 86.035 93.654 86.0081C93.7852 85.9811 93.925 85.9698 94.0653 85.9749C94.2057 85.9799 94.3438 86.0012 94.4719 86.0374C94.6 86.0737 94.7154 86.1243 94.8117 86.1862C94.908 86.2482 94.9833 86.3203 95.0331 86.3986C95.083 86.4768 95.1065 86.5596 95.1024 86.6421C95.0983 86.7247 95.0665 86.8055 95.009 86.8799C94.5766 87.4338 94.1756 88.0075 93.7964 88.5692C93.7066 88.7062 93.5364 88.8185 93.3159 88.8863C93.0955 88.954 92.839 88.9729 92.5918 88.9396C92.3446 88.9062 92.1227 88.8228 91.9652 88.704C91.8078 88.5852 91.725 88.4387 91.7314 88.2905ZM92.7536 110.293C92.7565 110.175 92.8156 110.061 92.9241 109.964C93.0327 109.867 93.1863 109.791 93.3674 109.744C93.623 109.677 93.9164 109.674 94.1832 109.734C94.4499 109.795 94.6682 109.915 94.7901 110.067C95.223 110.627 95.7093 111.188 96.2173 111.737C96.2859 111.811 96.3294 111.891 96.3454 111.974C96.3615 112.057 96.3497 112.14 96.3107 112.219C96.2717 112.298 96.2063 112.371 96.1183 112.435C96.0303 112.498 95.9214 112.55 95.7979 112.587C95.5504 112.662 95.2596 112.675 94.9888 112.624C94.718 112.573 94.4893 112.461 94.3525 112.313C93.8238 111.739 93.3169 111.152 92.8525 110.572C92.7776 110.476 92.7438 110.372 92.7543 110.268L92.7536 110.293ZM98.1306 81.1683C98.1313 81.0484 98.1902 80.9322 98.3003 80.8334C98.892 80.3155 99.5157 79.7984 100.15 79.2943C100.315 79.1623 100.565 79.0761 100.844 79.0546C101.123 79.033 101.409 79.0778 101.638 79.1792C101.867 79.2809 102.022 79.4308 102.067 79.596C102.112 79.7612 102.045 79.9282 101.88 80.0604C101.257 80.5523 100.666 81.0514 100.086 81.5571C99.958 81.667 99.7724 81.7486 99.5563 81.7899C99.3402 81.8312 99.1051 81.83 98.8857 81.7864C98.6664 81.7427 98.4745 81.6591 98.3385 81.5478C98.2025 81.4365 98.1296 81.3034 98.1306 81.1683ZM100.174 117.272C100.178 117.181 100.216 117.092 100.284 117.011C100.353 116.93 100.451 116.86 100.572 116.805C100.68 116.754 100.805 116.717 100.939 116.695C101.073 116.674 101.214 116.668 101.353 116.678C101.493 116.688 101.629 116.715 101.753 116.756C101.876 116.797 101.986 116.852 102.076 116.917L102.317 117.062C102.914 117.494 103.532 117.933 104.182 118.373C104.371 118.501 104.469 118.666 104.453 118.833C104.437 118.999 104.309 119.153 104.098 119.261C103.887 119.368 103.609 119.421 103.326 119.406C103.043 119.391 102.777 119.311 102.588 119.183C101.918 118.724 101.278 118.278 100.671 117.833L100.472 117.683C100.293 117.57 100.187 117.424 100.174 117.272ZM106.717 74.907C106.722 74.7513 106.825 74.604 107.007 74.4937C107.757 74.0432 108.517 73.5992 109.277 73.1741C109.479 73.0605 109.751 73.0002 110.035 73.0065C110.318 73.0128 110.589 73.0851 110.788 73.2075C110.987 73.3299 111.098 73.4925 111.097 73.6593C111.095 73.8262 110.981 73.9838 110.779 74.0974C110.03 74.5165 109.291 74.9485 108.605 75.3883C108.509 75.447 108.393 75.4935 108.264 75.5251C108.135 75.5567 107.996 75.5727 107.855 75.5722C107.714 75.5717 107.573 75.5547 107.442 75.5223C107.31 75.4898 107.19 75.4425 107.088 75.383C106.973 75.3227 106.881 75.249 106.817 75.167C106.753 75.0849 106.719 74.9963 106.717 74.907ZM109.736 123.374C109.741 123.218 109.844 123.071 110.025 122.961C110.218 122.843 110.486 122.777 110.768 122.777C111.05 122.777 111.325 122.842 111.532 122.96C112.299 123.397 113.077 123.84 113.877 124.284C113.988 124.341 114.079 124.409 114.144 124.486C114.21 124.563 114.249 124.646 114.259 124.731C114.268 124.816 114.249 124.901 114.202 124.98C114.154 125.059 114.08 125.132 113.983 125.193C113.886 125.254 113.768 125.302 113.637 125.335C113.506 125.368 113.364 125.385 113.22 125.384C113.076 125.384 112.933 125.366 112.799 125.332C112.665 125.298 112.543 125.249 112.441 125.187C111.631 124.736 110.842 124.293 110.074 123.862C109.972 123.796 109.894 123.719 109.845 123.635C109.796 123.551 109.777 123.463 109.789 123.376L109.736 123.374ZM117.091 69.6714C117.093 69.5759 117.132 69.4826 117.204 69.3986C117.277 69.3145 117.382 69.2419 117.511 69.1863C118.387 68.8086 119.263 68.4496 120.138 68.1033C120.254 68.058 120.384 68.0269 120.521 68.0117C120.659 67.9966 120.801 67.9977 120.94 68.0151C121.078 68.0325 121.21 68.0657 121.329 68.1129C121.447 68.1602 121.549 68.2204 121.629 68.2902C121.788 68.4301 121.849 68.5997 121.798 68.762C121.748 68.9244 121.59 69.0663 121.358 69.157C120.505 69.4976 119.651 69.8446 118.807 70.2107C118.648 70.2793 118.458 70.3196 118.258 70.3269C118.059 70.3342 117.858 70.3082 117.68 70.252C117.501 70.1958 117.351 70.1115 117.247 70.0089C117.143 69.9062 117.089 69.7893 117.091 69.6714ZM120.144 129.004C120.147 128.857 120.238 128.717 120.401 128.608C120.583 128.486 120.843 128.412 121.124 128.404C121.404 128.395 121.682 128.452 121.898 128.563C122.709 128.982 123.519 129.401 124.352 129.821C124.46 129.876 124.549 129.943 124.615 130.017C124.68 130.092 124.72 130.173 124.733 130.256C124.745 130.339 124.73 130.421 124.688 130.5C124.646 130.578 124.577 130.65 124.487 130.712C124.305 130.835 124.046 130.91 123.766 130.92C123.485 130.93 123.206 130.874 122.989 130.764L120.525 129.499C120.404 129.437 120.307 129.36 120.241 129.275C120.175 129.189 120.142 129.096 120.144 129.004ZM128.802 65.5242C128.811 65.4074 128.875 65.2953 128.987 65.2007C129.099 65.1061 129.255 65.0326 129.437 64.9886C130.438 64.7151 131.439 64.4603 132.407 64.2361C132.536 64.2063 132.675 64.1919 132.816 64.1939C132.956 64.1959 133.095 64.2141 133.225 64.2476C133.355 64.2811 133.473 64.3291 133.573 64.389C133.673 64.4489 133.753 64.5195 133.807 64.5966C133.862 64.6738 133.891 64.756 133.892 64.8387C133.893 64.9214 133.866 65.0029 133.814 65.0785C133.761 65.1541 133.683 65.2224 133.585 65.2795C133.486 65.3365 133.369 65.3812 133.239 65.4109C132.314 65.63 131.346 65.8731 130.387 66.1353C130.261 66.1697 130.123 66.1887 129.983 66.1913C129.842 66.1939 129.701 66.1801 129.568 66.1506C129.434 66.1211 129.312 66.0765 129.206 66.0194C129.101 65.9623 129.015 65.8938 128.954 65.8179C128.879 65.7262 128.841 65.626 128.845 65.5254L128.802 65.5242ZM130.879 134.403C130.882 134.286 130.942 134.173 131.05 134.076C131.159 133.98 131.312 133.904 131.492 133.857C131.672 133.811 131.873 133.795 132.071 133.813C132.268 133.83 132.456 133.879 132.612 133.955L135.109 135.184C135.228 135.235 135.329 135.3 135.406 135.375C135.482 135.45 135.532 135.532 135.552 135.617C135.573 135.703 135.564 135.789 135.526 135.871C135.487 135.954 135.42 136.03 135.329 136.095C135.238 136.16 135.125 136.214 134.996 136.252C134.868 136.29 134.726 136.311 134.581 136.315C134.436 136.32 134.29 136.306 134.152 136.276C134.014 136.246 133.887 136.199 133.779 136.14L131.281 134.912C131.161 134.847 131.067 134.768 131.005 134.68C130.942 134.593 130.914 134.498 130.921 134.404L130.879 134.403ZM141.976 63.2994C141.977 63.1468 142.073 63.0016 142.245 62.8907C142.418 62.7798 142.654 62.711 142.912 62.6969C143.982 62.6391 145.126 62.6149 146.215 62.6206C146.499 62.6287 146.768 62.7026 146.965 62.8261C147.162 62.9497 147.27 63.1127 147.265 63.2794C147.26 63.4461 147.143 63.6028 146.94 63.715C146.736 63.8273 146.463 63.8858 146.18 63.8778C145.15 63.8695 144.122 63.8929 143.1 63.9478C142.961 63.9553 142.819 63.9464 142.683 63.9215C142.547 63.8967 142.42 63.8564 142.309 63.803C142.199 63.7495 142.106 63.684 142.038 63.6102C141.969 63.5364 141.925 63.4558 141.909 63.373L141.976 63.2994ZM141.745 139.712C141.746 139.594 141.804 139.48 141.912 139.383C142.02 139.285 142.172 139.209 142.353 139.161C142.534 139.114 142.735 139.098 142.934 139.115C143.133 139.132 143.321 139.182 143.478 139.258L145.986 140.48C146.195 140.59 146.326 140.741 146.352 140.903C146.378 141.065 146.298 141.224 146.128 141.349C145.958 141.473 145.711 141.552 145.438 141.569C145.166 141.587 144.889 141.542 144.666 141.443L142.19 140.209C142.065 140.148 141.964 140.072 141.895 139.986C141.825 139.901 141.788 139.807 141.787 139.713L141.745 139.712ZM144.682 243.447C144.674 243.388 144.675 243.329 144.687 243.271C144.729 243.193 144.796 243.121 144.886 243.059C144.975 242.997 145.085 242.947 145.21 242.911C145.334 242.874 145.469 242.853 145.609 242.848C145.749 242.843 145.889 242.854 146.023 242.881C146.958 243.065 147.979 243.264 149.073 243.465C149.209 243.489 149.336 243.529 149.447 243.582C149.558 243.634 149.651 243.699 149.72 243.773C149.789 243.846 149.834 243.926 149.851 244.009C149.868 244.091 149.858 244.174 149.82 244.253C149.782 244.332 149.717 244.406 149.63 244.47C149.543 244.533 149.434 244.585 149.311 244.623C149.188 244.661 149.052 244.684 148.912 244.691C148.772 244.698 148.63 244.688 148.495 244.662C147.432 244.462 146.369 244.262 145.402 244.071C145.187 244.024 145.002 243.938 144.872 243.826C144.743 243.713 144.676 243.581 144.682 243.447ZM152.622 144.99C152.627 144.851 152.709 144.719 152.857 144.613C153.034 144.486 153.291 144.408 153.572 144.395C153.852 144.381 154.134 144.434 154.355 144.542L156.863 145.764C157.086 145.873 157.228 146.028 157.259 146.196C157.291 146.363 157.208 146.529 157.031 146.656C156.853 146.784 156.594 146.863 156.311 146.876C156.028 146.889 155.744 146.836 155.522 146.727L153.024 145.498C152.909 145.435 152.819 145.358 152.758 145.272C152.698 145.187 152.67 145.095 152.675 145.004L152.622 144.99ZM155.666 64.3415C155.652 64.2807 155.654 64.2193 155.671 64.1592C155.759 64.0025 155.95 63.8747 156.203 63.804C156.455 63.7333 156.748 63.7254 157.017 63.7822C158.08 63.9947 159.088 64.2435 160.106 64.4988C160.244 64.53 160.37 64.5773 160.476 64.6377C160.583 64.6981 160.668 64.7703 160.727 64.85C160.786 64.9297 160.816 65.0151 160.817 65.1009C160.818 65.1868 160.789 65.2713 160.732 65.3492C160.675 65.4272 160.591 65.4969 160.486 65.5542C160.38 65.6114 160.255 65.655 160.119 65.6821C159.982 65.7092 159.836 65.7194 159.691 65.712C159.545 65.7046 159.403 65.6797 159.273 65.639C158.307 65.3851 157.331 65.1499 156.365 64.9275C156.178 64.8767 156.018 64.7959 155.903 64.6946C155.789 64.5933 155.725 64.4756 155.719 64.3556L155.666 64.3415ZM158.199 245.717C158.189 245.677 158.19 245.637 158.202 245.598C158.259 245.436 158.422 245.296 158.657 245.209C158.891 245.121 159.178 245.093 159.455 245.13C160.519 245.274 161.52 245.409 162.584 245.546C162.724 245.564 162.858 245.597 162.977 245.645C163.097 245.692 163.2 245.753 163.281 245.823C163.361 245.894 163.418 245.972 163.448 246.055C163.478 246.137 163.481 246.222 163.455 246.303C163.43 246.385 163.377 246.463 163.3 246.532C163.223 246.601 163.123 246.66 163.006 246.705C162.889 246.751 162.758 246.782 162.619 246.797C162.48 246.812 162.336 246.811 162.197 246.793C161.132 246.656 160.067 246.519 159.003 246.375C158.763 246.335 158.552 246.248 158.405 246.128C158.259 246.008 158.186 245.863 158.199 245.717ZM163.498 150.331C163.5 150.212 163.559 150.098 163.668 150C163.777 149.903 163.931 149.826 164.114 149.779C164.296 149.733 164.498 149.718 164.698 149.736C164.897 149.754 165.086 149.805 165.241 149.883L167.728 151.13C167.841 151.184 167.935 151.25 168.005 151.325C168.074 151.4 168.118 151.482 168.134 151.566C168.149 151.65 168.136 151.734 168.095 151.814C168.054 151.894 167.986 151.968 167.894 152.031C167.803 152.094 167.691 152.145 167.564 152.182C167.437 152.218 167.298 152.239 167.155 152.243C167.012 152.247 166.869 152.234 166.733 152.205C166.598 152.175 166.473 152.13 166.365 152.073L163.89 150.832C163.768 150.772 163.67 150.697 163.602 150.612C163.534 150.527 163.499 150.436 163.497 150.343L163.498 150.331ZM167.891 68.4309C167.897 68.2971 167.976 68.1693 168.115 68.0661C168.287 67.9383 168.54 67.8572 168.818 67.8404C169.097 67.8235 169.379 67.8723 169.603 67.9761C170.457 68.3778 171.31 68.8045 172.142 69.2433C172.356 69.3569 172.486 69.5146 172.506 69.6814C172.525 69.8483 172.431 70.0108 172.245 70.1332C172.059 70.2555 171.795 70.3277 171.513 70.3339C171.23 70.34 170.951 70.2796 170.738 70.166C169.948 69.741 169.126 69.334 168.314 68.9524C168.18 68.89 168.072 68.8103 167.998 68.7196C167.924 68.629 167.888 68.53 167.891 68.4309ZM174.189 155.767C174.195 155.622 174.286 155.485 174.446 155.378C174.629 155.255 174.889 155.182 175.169 155.173C175.449 155.165 175.727 155.222 175.943 155.332L178.386 156.603C178.495 156.657 178.585 156.723 178.651 156.797C178.717 156.871 178.759 156.952 178.773 157.034C178.787 157.117 178.773 157.2 178.733 157.278C178.692 157.356 178.626 157.429 178.537 157.491C178.448 157.553 178.339 157.604 178.216 157.641C178.092 157.678 177.957 157.7 177.817 157.706C177.677 157.711 177.536 157.701 177.402 157.674C177.268 157.648 177.143 157.607 177.034 157.552L174.602 156.288C174.469 156.225 174.363 156.145 174.291 156.055C174.22 155.964 174.185 155.865 174.189 155.767ZM171.919 247.213L171.92 247.163C171.947 246.998 172.084 246.848 172.301 246.745C172.518 246.643 172.798 246.597 173.079 246.617C174.145 246.698 175.212 246.765 176.278 246.833C176.423 246.837 176.566 246.859 176.698 246.896C176.83 246.933 176.949 246.986 177.047 247.05C177.145 247.115 177.221 247.19 177.269 247.272C177.317 247.353 177.337 247.439 177.327 247.524C177.306 247.689 177.175 247.84 176.961 247.945C176.748 248.05 176.471 248.099 176.19 248.083C175.123 248.021 174.056 247.947 172.99 247.866C172.849 247.864 172.709 247.845 172.579 247.811C172.448 247.777 172.33 247.728 172.23 247.667C172.131 247.607 172.052 247.535 171.998 247.457C171.945 247.379 171.918 247.296 171.919 247.213ZM177.724 74.3837C177.726 74.2532 177.798 74.1278 177.928 74.0248C178.059 73.9217 178.242 73.8462 178.452 73.8086C178.662 73.771 178.889 73.7732 179.101 73.815C179.313 73.8567 179.5 73.9359 179.635 74.0415C180.89 75.0144 181.556 75.6371 181.587 75.6632C181.734 75.8066 181.78 75.9765 181.717 76.136C181.654 76.2956 181.486 76.4321 181.249 76.5162C181.013 76.6003 180.727 76.6252 180.453 76.5855C180.179 76.5458 179.939 76.4448 179.785 76.3041C179.785 76.3041 179.14 75.7008 177.958 74.7866C177.8 74.6673 177.717 74.52 177.724 74.3711L177.724 74.3837ZM184.673 161.348C184.679 161.228 184.742 161.113 184.856 161.016C184.969 160.919 185.129 160.844 185.315 160.8C185.502 160.756 185.707 160.744 185.908 160.766C186.109 160.789 186.296 160.844 186.448 160.927C187.248 161.358 188.048 161.796 188.836 162.252C188.947 162.309 189.038 162.377 189.103 162.454C189.169 162.531 189.208 162.614 189.218 162.699C189.228 162.784 189.209 162.869 189.161 162.948C189.114 163.027 189.039 163.1 188.942 163.161C188.845 163.222 188.728 163.27 188.597 163.303C188.466 163.336 188.324 163.353 188.18 163.352C188.036 163.352 187.892 163.334 187.758 163.3C187.624 163.266 187.503 163.217 187.4 163.155C186.611 162.718 185.822 162.28 185.023 161.83C184.908 161.766 184.817 161.689 184.757 161.604C184.697 161.518 184.668 161.427 184.674 161.335L184.673 161.348ZM185.794 247.757C185.798 247.597 185.906 247.445 186.096 247.334C186.286 247.222 186.543 247.159 186.815 247.157C187.884 247.15 188.953 247.136 190.022 247.11C190.306 247.103 190.586 247.162 190.801 247.276C191.016 247.389 191.149 247.547 191.17 247.715C191.191 247.882 191.098 248.045 190.912 248.169C190.726 248.292 190.462 248.365 190.179 248.372C189.11 248.399 188.04 248.419 186.972 248.42C186.699 248.412 186.439 248.344 186.244 248.228C186.048 248.113 185.933 247.959 185.921 247.799L185.794 247.757ZM194.864 167.116C194.869 166.957 194.976 166.807 195.164 166.697C195.36 166.581 195.629 166.517 195.911 166.519C196.194 166.521 196.467 166.589 196.67 166.708C197.448 167.158 198.215 167.614 198.972 168.069C199.151 168.191 199.247 168.348 199.24 168.506C199.234 168.665 199.125 168.815 198.937 168.925C198.748 169.035 198.493 169.098 198.224 169.101C197.954 169.103 197.689 169.045 197.483 168.939L195.191 167.616C195.073 167.548 194.982 167.465 194.926 167.374C194.869 167.283 194.848 167.186 194.864 167.091L194.864 167.116ZM199.556 247.009C199.553 246.865 199.634 246.726 199.785 246.616C199.936 246.506 200.148 246.431 200.385 246.403C201.457 246.289 202.455 246.16 203.442 246.012C203.577 245.992 203.718 245.989 203.857 246.002C203.996 246.015 204.131 246.044 204.253 246.087C204.374 246.13 204.481 246.187 204.567 246.253C204.653 246.32 204.716 246.396 204.754 246.476C204.829 246.638 204.793 246.808 204.655 246.951C204.517 247.093 204.287 247.195 204.016 247.236C202.943 247.381 201.924 247.522 200.852 247.643C200.715 247.659 200.573 247.658 200.434 247.642C200.296 247.625 200.163 247.592 200.044 247.546C199.925 247.499 199.823 247.439 199.742 247.37C199.661 247.3 199.604 247.223 199.574 247.141L199.556 247.009ZM204.653 173.099C204.657 172.975 204.724 172.855 204.845 172.755C204.966 172.656 205.136 172.58 205.332 172.539C205.529 172.497 205.744 172.491 205.95 172.522C206.157 172.553 206.345 172.618 206.491 172.711L208.694 174.138C208.793 174.199 208.87 174.271 208.922 174.349C208.974 174.428 209 174.51 208.997 174.593C208.995 174.676 208.965 174.758 208.908 174.833C208.852 174.908 208.771 174.975 208.669 175.031C208.466 175.142 208.193 175.2 207.911 175.192C207.629 175.184 207.36 175.111 207.164 174.988C206.45 174.515 205.716 174.048 204.981 173.574C204.869 173.508 204.781 173.43 204.725 173.343C204.668 173.257 204.644 173.165 204.653 173.074L204.653 173.099ZM213.899 179.381C213.903 179.254 213.973 179.131 214.099 179.03C214.225 178.928 214.402 178.853 214.607 178.813C214.811 178.774 215.032 178.773 215.242 178.81C215.451 178.846 215.638 178.919 215.779 179.019L217.873 180.525C218.052 180.659 218.136 180.827 218.107 180.993C218.077 181.159 217.936 181.31 217.715 181.411C217.494 181.512 217.211 181.557 216.928 181.534C216.645 181.511 216.385 181.423 216.206 181.29C215.547 180.793 214.867 180.296 214.186 179.798C213.999 179.676 213.896 179.518 213.9 179.356L213.899 179.381ZM212.619 244.554C212.624 244.44 212.681 244.329 212.786 244.235C212.89 244.14 213.037 244.065 213.211 244.017C214.148 243.755 215.075 243.479 215.97 243.183C216.215 243.105 216.505 243.087 216.778 243.135C217.051 243.183 217.284 243.292 217.427 243.439C217.568 243.585 217.606 243.757 217.534 243.917C217.461 244.076 217.283 244.21 217.039 244.289C216.112 244.596 215.142 244.865 214.172 245.158C214.008 245.205 213.824 245.225 213.639 245.217C213.454 245.208 213.275 245.172 213.118 245.111C212.961 245.05 212.833 244.967 212.746 244.869C212.658 244.772 212.614 244.663 212.619 244.554ZM222.377 186.013C222.379 185.913 222.421 185.817 222.5 185.73C222.578 185.644 222.691 185.571 222.829 185.516C222.943 185.47 223.072 185.438 223.209 185.422C223.346 185.406 223.488 185.406 223.626 185.422C223.765 185.438 223.897 185.47 224.016 185.516C224.135 185.562 224.238 185.621 224.32 185.69C224.946 186.224 225.55 186.757 226.155 187.29C226.234 187.36 226.289 187.438 226.317 187.519C226.345 187.601 226.346 187.684 226.319 187.765C226.293 187.846 226.239 187.922 226.162 187.99C226.085 188.057 225.985 188.115 225.869 188.159C225.752 188.203 225.622 188.233 225.484 188.247C225.347 188.262 225.205 188.259 225.067 188.241C224.929 188.223 224.798 188.189 224.68 188.141C224.563 188.094 224.462 188.033 224.384 187.963L222.58 186.39C222.438 186.272 222.366 186.13 222.377 185.988L222.377 186.013ZM223.943 240.094C223.946 240.011 223.977 239.929 224.034 239.854C224.091 239.779 224.174 239.712 224.276 239.657C225 239.258 225.724 238.832 226.449 238.379C226.64 238.259 226.906 238.19 227.188 238.188C227.471 238.185 227.747 238.249 227.956 238.365C228.165 238.481 228.29 238.64 228.303 238.806C228.317 238.973 228.217 239.134 228.027 239.254C227.298 239.711 226.527 240.161 225.735 240.591C225.531 240.703 225.259 240.761 224.977 240.753C224.695 240.745 224.426 240.672 224.229 240.549C224.129 240.484 224.052 240.407 224.002 240.325C223.953 240.242 223.933 240.155 223.944 240.069L223.943 240.094ZM229.806 193.08C229.808 192.969 229.86 192.862 229.957 192.768C230.053 192.675 230.19 192.599 230.355 192.548C230.601 192.473 230.891 192.458 231.162 192.508C231.432 192.559 231.662 192.669 231.801 192.816C232.329 193.384 232.837 193.952 233.334 194.52C233.402 194.594 233.445 194.675 233.46 194.758C233.476 194.841 233.463 194.925 233.424 195.004C233.384 195.083 233.319 195.156 233.23 195.22C233.142 195.283 233.033 195.335 232.909 195.373C232.785 195.411 232.649 195.433 232.508 195.44C232.368 195.446 232.226 195.437 232.09 195.411C231.954 195.385 231.828 195.344 231.718 195.29C231.607 195.236 231.515 195.17 231.447 195.096C230.961 194.534 230.411 193.978 229.935 193.423C229.817 193.299 229.772 193.156 229.807 193.017L229.806 193.08ZM232.412 233.842C232.414 233.736 232.465 233.633 232.559 233.544C233.065 233.03 233.561 232.491 234.026 231.938C234.088 231.865 234.175 231.8 234.281 231.748C234.386 231.695 234.509 231.656 234.643 231.632C234.776 231.608 234.916 231.6 235.057 231.608C235.197 231.616 235.334 231.64 235.46 231.679C235.585 231.719 235.698 231.772 235.79 231.836C235.883 231.9 235.953 231.973 235.998 232.053C236.043 232.132 236.061 232.215 236.052 232.298C236.042 232.38 236.005 232.46 235.943 232.533C235.457 233.104 234.939 233.662 234.411 234.201C234.294 234.321 234.111 234.413 233.892 234.463C233.672 234.513 233.428 234.518 233.198 234.477C232.968 234.436 232.766 234.351 232.624 234.236C232.481 234.121 232.407 233.982 232.412 233.842ZM235.727 200.564C235.73 200.417 235.821 200.278 235.982 200.169C236.143 200.061 236.366 199.99 236.611 199.97C236.856 199.949 237.108 199.98 237.324 200.056C237.54 200.133 237.706 200.251 237.794 200.39C238.183 200.992 238.551 201.594 238.897 202.201C238.979 202.359 238.955 202.528 238.83 202.671C238.704 202.815 238.487 202.923 238.224 202.971C237.961 203.019 237.673 203.004 237.422 202.93C237.17 202.855 236.975 202.727 236.877 202.572C236.541 201.983 236.184 201.395 235.795 200.805C235.734 200.711 235.711 200.612 235.728 200.514L235.727 200.564ZM237.878 226.448C237.87 226.387 237.872 226.326 237.884 226.266C238.199 225.683 238.494 225.088 238.746 224.497C238.817 224.333 238.997 224.193 239.247 224.11C239.497 224.027 239.796 224.007 240.078 224.054C240.36 224.101 240.602 224.212 240.751 224.362C240.9 224.512 240.944 224.688 240.873 224.853C240.599 225.475 240.303 226.095 239.976 226.715C239.931 226.881 239.777 227.027 239.546 227.122C239.314 227.217 239.026 227.253 238.743 227.221C238.461 227.19 238.208 227.094 238.039 226.955C237.871 226.815 237.801 226.644 237.845 226.479L237.878 226.448ZM239.576 208.392C239.575 208.245 239.66 208.105 239.817 207.994C239.974 207.884 240.194 207.811 240.437 207.787C240.576 207.773 240.719 207.776 240.857 207.795C240.996 207.815 241.127 207.85 241.244 207.899C241.361 207.948 241.461 208.01 241.538 208.081C241.615 208.152 241.668 208.231 241.694 208.313C241.89 208.948 242.075 209.582 242.217 210.215C242.256 210.383 242.181 210.551 242.008 210.683C241.835 210.814 241.578 210.898 241.294 210.916C241.01 210.933 240.723 210.884 240.494 210.778C240.266 210.672 240.115 210.518 240.076 210.35C239.934 209.716 239.758 209.126 239.562 208.511C239.557 208.471 239.562 208.431 239.576 208.392ZM240.488 218.438L240.489 218.394C240.571 217.768 240.632 217.14 240.659 216.55C240.664 216.383 240.781 216.226 240.984 216.114C241.188 216.002 241.461 215.944 241.745 215.952C242.028 215.96 242.297 216.033 242.494 216.157C242.691 216.281 242.799 216.444 242.794 216.61C242.777 217.239 242.705 217.866 242.623 218.524C242.609 218.691 242.484 218.845 242.275 218.954C242.065 219.062 241.789 219.116 241.506 219.103C241.223 219.09 240.957 219.011 240.766 218.884C240.575 218.757 240.475 218.592 240.488 218.426L240.488 218.438Z" fill="#212528"/>
<path d="M155.645 242.955C181.064 242.955 201.67 222.364 201.67 196.964C201.67 171.564 181.064 150.973 155.645 150.973C130.227 150.973 109.621 171.564 109.621 196.964C109.621 222.364 130.227 242.955 155.645 242.955Z" fill="#EEEEEE"/>
<path d="M220.454 215.544H144.29C138.168 215.544 133.205 210.607 133.205 204.518V48.6904C133.205 42.6011 138.168 37.6646 144.29 37.6646H220.454C226.576 37.6646 231.539 42.6011 231.539 48.6904V204.518C231.539 210.607 226.576 215.544 220.454 215.544Z" fill="#00C2CB"/>
<path d="M220.454 37.6646H200.805C206.927 37.6646 211.889 42.6011 211.889 48.6904V204.518C211.889 210.607 206.927 215.543 200.805 215.543H220.454C226.576 215.543 231.539 210.607 231.539 204.518V48.6904C231.539 42.6011 226.576 37.6646 220.454 37.6646Z" fill="#00C2CB"/>
<path d="M133.205 54.2944H231.539V191.322H133.205V54.2944Z" fill="#F7FBFD"/>
<path d="M211.89 54.2944H231.539V191.322H211.89V54.2944Z" fill="#EEEEEE"/>
<path d="M148.115 220.998C161.493 201.647 155.587 169.364 132.989 159.637V115.297C132.989 108.849 127.758 103.622 121.305 103.622C114.852 103.622 109.621 108.849 109.621 115.297V202.745L92.2786 220.075L132.665 260.432L150.398 242.711" fill="#F7FBFD"/>
<path d="M132.988 159.637V115.297C132.988 108.849 127.757 103.622 121.305 103.622C114.852 103.622 109.621 108.849 109.621 115.297V159.709C125.685 166.726 133.25 185.18 131.375 202.184C130.271 212.198 137.988 220.998 148.115 220.998C161.493 201.647 155.587 169.364 132.988 159.637Z" fill="#EEEEEE"/>
<path d="M216.228 90.7131V90.6643C216.228 84.7646 221.036 79.9824 226.966 79.9824H233.398C239.329 79.9824 244.137 84.7651 244.137 90.6643V90.7131C244.137 96.6128 239.329 101.395 233.398 101.395H226.966C221.036 101.395 216.228 96.6128 216.228 90.7131Z" fill="#F7FBFD"/>
<path d="M233.399 79.9824H226.967C225.495 79.9824 224.092 80.2771 222.814 80.8102C226.683 82.4251 229.401 86.229 229.401 90.6643V90.7131C229.401 95.1484 226.683 98.9519 222.814 100.567C224.092 101.1 225.495 101.395 226.967 101.395H233.399C239.33 101.395 244.138 96.6123 244.138 90.7131V90.6643C244.138 84.7651 239.329 79.9824 233.399 79.9824Z" fill="#EEEEEE"/>
<path d="M216.228 112.126V112.077C216.228 106.178 221.036 101.396 226.966 101.396H233.398C239.329 101.396 244.137 106.178 244.137 112.077V112.126C244.137 118.026 239.329 122.808 233.398 122.808H226.966C221.036 122.808 216.228 118.025 216.228 112.126Z" fill="#F7FBFD"/>
<path d="M233.399 101.395H226.967C225.495 101.395 224.092 101.69 222.814 102.223C226.683 103.838 229.401 107.642 229.401 112.077V112.126C229.401 116.561 226.683 120.364 222.814 121.98C224.092 122.513 225.495 122.808 226.967 122.808H233.399C239.33 122.808 244.138 118.025 244.138 112.126V112.077C244.138 106.178 239.329 101.395 233.399 101.395Z" fill="#EEEEEE"/>
<path d="M216.228 133.539V133.49C216.228 127.59 221.036 122.808 226.966 122.808H233.398C239.329 122.808 244.137 127.591 244.137 133.49V133.539C244.137 139.438 239.329 144.221 233.398 144.221H226.966C221.036 144.221 216.228 139.438 216.228 133.539Z" fill="#F7FBFD"/>
<path d="M233.399 122.808H226.967C225.495 122.808 224.092 123.103 222.814 123.636C226.683 125.251 229.401 129.055 229.401 133.49V133.539C229.401 137.974 226.683 141.778 222.814 143.393C224.092 143.926 225.495 144.221 226.967 144.221H233.399C239.33 144.221 244.138 139.438 244.138 133.539V133.49C244.138 127.59 239.329 122.808 233.399 122.808Z" fill="#EEEEEE"/>
<path d="M216.228 154.952V154.903C216.228 149.003 221.036 144.221 226.966 144.221H233.398C239.329 144.221 244.137 149.004 244.137 154.903V154.952C244.137 160.852 239.329 165.634 233.398 165.634H226.966C221.036 165.634 216.228 160.851 216.228 154.952Z" fill="#F7FBFD"/>
<path d="M233.399 144.221H226.967C225.495 144.221 224.092 144.515 222.814 145.049C226.683 146.664 229.401 150.468 229.401 154.903V154.952C229.401 159.387 226.683 163.191 222.814 164.806C224.092 165.339 225.495 165.634 226.967 165.634H233.399C239.33 165.634 244.138 160.852 244.138 154.952V154.904C244.138 149.003 239.329 144.221 233.399 144.221Z" fill="#EEEEEE"/>
<path d="M140.175 275.737C133.804 282.103 123.47 282.103 117.099 275.737L79.066 237.732C72.7031 231.374 72.7031 221.072 79.066 214.714C85.4367 208.348 95.7711 208.348 102.142 214.714L140.175 252.719C146.537 259.077 146.537 269.379 140.175 275.737Z" fill="#212528"/>
<path d="M247.822 154.903C247.822 150.663 245.963 146.848 243.014 144.219C249.326 138.58 249.334 128.44 243.014 122.806C249.325 117.169 249.335 107.03 243.016 101.396C252.009 93.3763 247.282 77.9534 235.222 76.4328V48.6905C235.223 40.5901 228.597 34 220.454 34H173.773C169.009 34 169.009 41.3294 173.773 41.3294H220.454C224.535 41.3294 227.854 44.632 227.854 48.6905V50.6299H136.889V48.6905C136.889 44.631 140.209 41.3294 144.289 41.3294H153.64C158.403 41.3294 158.403 34 153.64 34H144.289C136.145 34 129.52 40.5901 129.52 48.6905V102.339C119.49 95.9802 105.936 103.498 105.936 115.298V201.232L99.0378 208.125C91.5436 204.643 82.2801 206.307 76.4546 212.129C68.6766 219.9 68.6766 232.546 76.4546 240.317L99.2578 263.104C102.618 266.462 107.84 261.292 104.48 257.933L81.6769 235.147C76.7523 230.226 76.7523 222.22 81.6769 217.299C86.5223 212.457 94.712 212.484 99.5305 217.299L137.564 255.304C142.487 260.224 142.487 268.231 137.564 273.152C131.933 278.778 123.179 277.488 118.267 271.71C114.906 268.351 109.685 273.522 113.045 276.88C120.776 285.397 134.349 286.752 142.786 278.322C149.643 271.47 150.454 260.829 145.219 253.08L151.857 246.448C171.795 247.961 191.154 237.012 200.098 219.208H220.454C228.597 219.208 235.222 212.618 235.222 204.518V169.184C242.318 168.289 247.822 162.244 247.822 154.903ZM240.453 154.951C240.453 158.821 237.289 161.969 233.399 161.969H226.966C223.077 161.969 219.912 158.821 219.912 154.951V154.903C219.912 151.033 223.077 147.885 226.966 147.885H233.399C237.289 147.885 240.453 151.034 240.453 154.951ZM240.453 133.539C240.453 137.408 237.289 140.556 233.399 140.556H226.966C223.077 140.556 219.912 137.408 219.912 133.539V133.49C219.912 129.621 223.077 126.473 226.966 126.473H233.399C237.289 126.473 240.453 129.621 240.453 133.539ZM240.453 112.126C240.453 115.996 237.289 119.144 233.399 119.144H226.966C223.077 119.144 219.912 115.996 219.912 112.126V112.078C219.912 108.208 223.077 105.06 226.966 105.06H233.399C237.289 105.06 240.453 108.208 240.453 112.126ZM240.453 90.6645C240.328 94.4156 237.296 97.731 233.399 97.731H226.966C223.077 97.731 219.912 94.5832 219.912 90.7138V90.6645C219.912 86.7955 223.077 83.6478 226.966 83.6478H233.399C237.289 83.6473 240.453 86.7955 240.453 90.6645ZM227.854 57.9593V76.3179H226.966C219.014 76.3179 212.544 82.7536 212.544 90.664V90.7133C212.544 94.9517 214.401 98.7664 217.349 101.395C214.402 104.024 212.544 107.839 212.544 112.077V112.126C212.544 116.364 214.401 120.179 217.349 122.808C214.402 125.437 212.544 129.251 212.544 133.49V133.538C212.544 137.777 214.401 141.591 217.349 144.22C214.402 146.849 212.544 150.664 212.544 154.902V154.951C212.544 162.861 219.014 169.298 226.966 169.298H227.854V187.656H157.996C155.663 175.156 148.419 163.414 136.889 157.428V57.9593H227.854ZM155.729 239.29L150.569 239.051C149.537 239.01 148.519 239.394 147.787 240.127L140.279 247.629L105.091 212.466L112.232 205.33C112.919 204.643 113.305 203.713 113.305 202.744V115.298C113.305 104.975 129.304 104.975 129.304 115.298V159.637C129.304 161.098 130.177 162.42 131.525 163.001C140.303 166.779 146.797 174.603 149.812 185.031C153.212 196.794 151.399 209.78 145.079 218.921C142.457 222.713 148.333 227.148 151.15 223.074C152.003 221.84 152.788 220.549 153.503 219.209H191.682C184.016 231.672 170.599 239.262 155.729 239.29ZM220.454 211.879H156.579C158.276 206.546 159.041 200.779 158.816 194.987H227.854V204.518C227.854 208.577 224.535 211.879 220.454 211.879Z" fill="#212528"/>
<path d="M147.416 85.7294C149.162 87.1381 150.898 87.1156 152.625 85.6615L163.409 74.6508C166.733 71.2573 161.454 66.1414 158.131 69.5363L147.347 80.547C145.927 81.9973 145.958 84.3173 147.416 85.7294Z" fill="#00C2CB"/>
<path d="M147.416 109.291C149.162 110.7 150.898 110.678 152.625 109.224L186.485 74.6508C189.809 71.2573 184.53 66.1414 181.207 69.5363L147.347 104.109C145.927 105.559 145.958 107.879 147.416 109.291Z" fill="#00C2CB"/>
<defs>
<filter id="filter0_f_32_890" x="0.875" y="0.875" width="316.25" height="316.25" filterUnits="userSpaceOnUse" color-interpolation-filters="sRGB">
<feFlood flood-opacity="0" result="BackgroundImageFix"/>
<feBlend mode="normal" in="SourceGraphic" in2="BackgroundImageFix" result="shape"/>
<feGaussianBlur stdDeviation="40" result="effect1_foregroundBlur_32_890"/>
</filter>
</defs>
</svg>
